<svg viewBox="0 0 20 20"><path d="M12.853 10.064c3.948 0 7.154 3.206 7.147 7.145a.993.993 0 0 1-.642.928l-.108.034-.112.022-.115.007H.977A.987.987 0 0 1 0 17.21a5.517 5.517 0 0 1 5.515-5.512c.603 0 1.199.1 1.775.3l.287.108.177.112.166-.166a7.127 7.127 0 0 1 3.44-1.83l.3-.057.303-.045.306-.032.309-.018.275-.006Zm.004 1.982-.22.005c-2.29.097-4.243 1.682-4.808 3.862l-.052.22-.02.078 10.21.06-.025-.133a5.196 5.196 0 0 0-4.423-4.05l-.226-.024-.222-.014-.214-.004Zm-7.348 1.626-.178.006a3.566 3.566 0 0 0-3.184 2.383l-.05.158 3.676.042.035-.236c.11-.648.306-1.274.584-1.865l.146-.292.021-.028-.136-.048-.222-.052-.222-.037-.225-.022-.245-.01Zm.006-8.49c1.611 0 2.92 1.342 2.92 2.99 0 1.647-1.309 2.99-2.92 2.99-1.61 0-2.919-1.343-2.919-2.99 0-1.648 1.309-2.99 2.92-2.99ZM12.853 2c1.998 0 3.618 1.662 3.618 3.709 0 2.046-1.62 3.708-3.618 3.708-1.994 0-3.617-1.665-3.617-3.708C9.236 3.662 10.856 2 12.853 2ZM5.515 7.163c-.528 0-.965.455-.965 1.009 0 .554.437 1.008.965 1.008.529 0 .966-.454.966-1.008 0-.558-.434-1.009-.966-1.009Zm7.338-3.181c-.915 0-1.663.774-1.663 1.727 0 .952.748 1.726 1.663 1.726.916 0 1.664-.774 1.664-1.726 0-.953-.748-1.727-1.664-1.727Z"/></svg>