<svg viewBox="0 0 20 20"><path d="m18.79 15.73-2.84-4.28c.8-1.2 1.26-2.61 1.26-4.07C17.22 3.31 13.91 0 9.85 0S2.48 3.31 2.48 7.38c0 1.58.5 3.08 1.4 4.31l-2.67 4.04a1 1 0 0 0 .78 1.55l2.37.12.85 1.99c.15.34.46.57.83.6h.09c.33 0 .65-.17.83-.45l3.04-4.6 3.03 4.6c.19.28.5.45.83.45h.09c.37-.03.68-.26.83-.6l.85-1.99 2.37-.12a1 1 0 0 0 .84-.55.95.95 0 0 0-.05-1zM9.85 2c2.96 0 5.37 2.41 5.37 5.38 0 1.25-.44 2.46-1.24 3.43-.92 1.12-2.22 1.8-3.7 1.92-.14.02-.28.02-.43.02-.04 0-.09 0-.22-.01-1.44-.05-2.82-.7-3.78-1.79a5.268 5.268 0 0 1-1.37-3.57C4.48 4.41 6.89 2 9.85 2zM6.32 16.89l-.37-.86c-.15-.35-.49-.58-.87-.6l-1.24-.06 1.46-2.2c.02.02.05.03.07.05.11.09.23.17.35.25.08.05.15.11.23.16.15.09.3.18.45.26.06.03.11.06.17.09.19.09.38.18.57.25.03.01.05.02.08.03.22.08.44.16.67.22h.01l-1.58 2.41zm8.6-1.46c-.38.02-.72.25-.87.6l-.37.86-1.64-2.48c.09-.03.19-.07.28-.1.11-.04.23-.08.34-.13.11-.04.21-.1.32-.15.12-.05.23-.11.35-.17.1-.05.19-.11.29-.17.11-.07.23-.14.34-.21.09-.06.18-.13.26-.19.11-.08.22-.16.32-.24.02-.01.04-.03.05-.04l1.56 2.35-1.23.07zM6.79 6.95c-.17-.16-.08-.43.15-.47l1.81-.26c.09-.01.17-.07.2-.15l.81-1.64c.1-.2.39-.2.49 0l.81 1.64c.04.08.12.14.2.15l1.81.26c.22.03.31.31.15.46l-1.31 1.28c-.06.06-.09.15-.08.24l.31 1.8c.04.22-.19.39-.39.29l-1.62-.85a.275.275 0 0 0-.25 0l-1.62.85a.27.27 0 0 1-.39-.29l.31-1.8a.243.243 0 0 0-.08-.24L6.79 6.95z"/></svg>