<svg xmlns="http://www.w3.org/2000/svg" xml:space="preserve" style="enable-background:new 0 0 32 32" viewBox="0 0 32 32"><path d="M15.4 30.8c-.2 0-.5 0-.7-.1h-.5c-5.8-.4-9.5-3.8-9.7-8.9v-.9c.3-6.4 6.1-8.6 10.9-8.6 2.1 0 3.6.2 5.6.6V12c0-3-1.4-4.1-4.8-4.1-1.5 0-3.3.3-5.2 1.1-1.4.3-2.7.2-3.6-.4-.7-.6-1.2-1.4-1.2-2.4 0-1.4.8-2.6 2.3-3.2 1.6-.7 4.8-1.6 8-1.6 7.2 0 11.2 3.7 11.2 10.4V25c0 .9-.2 1.9-1.4 2.6-.9.7-2.9 1.7-5.7 2.4-.3.2-.5.2-.6.2-.4 0-.8-.3-.8-.8V18c0-.2 0-.4-.1-.6 0-.2-.1-.4-.1-.5l-.5-.5c-.6-.2-1.1-.2-1.6.1L11 19.9s-.1 0-.1.1c-.1 0-.2.1-.3.3l-.1.1c-.1.1-.2.3-.2.5-.1.2-.1.3-.1.6 0 .1 0 .2.1.2 0 .2.1.3.1.3s0 .1.1.1c.2.4.4.6.9.8.4.1.8.1 1.2-.2l2.5-1.4c.2-.1.5-.1.7 0 .2.1.4.4.4.6v8c-.1.5-.4.9-.8.9zm-1.1-1.6h.4v-5.9l-1.4.8c-.9.4-1.7.5-2.4.3-.6-.2-1.4-.6-1.8-1.6-.2-.3-.2-.6-.3-.8 0-.1 0-.2-.1-.2v-.2c0-.3 0-.7.1-1.1.1-.3.2-.7.5-1 .2-.3.5-.6 1-.8l5.8-3.3c.5-.3 1.1-.4 1.7-.4.5 0 .9.1 1.2.2.1 0 .1.1.2.1.4.2.6.5.8.7.3.3.5.7.6 1.1.1.4.1.8.1 1v10.4c2.3-.6 3.9-1.4 4.7-2 .6-.4.7-.7.7-1.4V11.9C26.2 6 22.9 3 16.5 3c-2.8 0-5.9.7-7.4 1.4-.9.4-1.4 1-1.4 1.8 0 .5.2.9.5 1.1.5.4 1.3.4 2.2.1 2.1-.8 4-1.1 5.7-1.1 4.3 0 6.3 1.8 6.3 5.6v1.7c0 .2-.1.4-.3.6-.2.1-.4.2-.6.1-2.4-.5-4-.8-6.2-.8-6.7 0-9.3 3.7-9.5 7.2v.9c.3 4.4 3.4 7.2 8.5 7.6z"/></svg>