<svg viewBox="0 0 20 20"><path d="M16.53 7.45c-.5 0-.98.12-1.41.31V1.09c0-.55-.45-1-1-1s-1 .45-1 1v2.39c-.87-.67-1.95-1.09-3.13-1.09s-2.25.42-3.12 1.09V1.09c0-.55-.45-1-1-1s-1 .45-1 1v6.68c-.43-.2-.9-.31-1.4-.31-1.88 0-3.41 1.53-3.41 3.41v8.05c0 .55.45 1 1 1h17.87c.55 0 1-.45 1-1v-8.05a3.401 3.401 0 0 0-3.4-3.42zm0 2c.77 0 1.41.63 1.41 1.41v.7h-2.81v-.7a1.4 1.4 0 0 1 1.4-1.41zm-6.52-5.06c1.37 0 2.53.89 2.95 2.12H7.04a3.14 3.14 0 0 1 2.97-2.12zM3.47 9.45c.77 0 1.4.63 1.4 1.41v.6h-2.8v-.6c0-.78.63-1.41 1.4-1.41zm-1.4 4.01h2.81v4.45H2.07v-4.45zm4.81 2.53V8.51h6.25v9.4h-2.15v-3.47c0-.55-.45-1-1-1s-1 .45-1 1v3.47h-2.1v-1.92zm8.24 1.92v-4.35h2.81v4.35h-2.81z"/></svg>