<svg viewBox="0 0 32 32"><path d="M22.78 27.76h-.04a.745.745 0 0 1-.59-.34l-5.3-8.23-2.79 2.79.81 2.33c.09.27.02.57-.18.78l-2.11 2.11c-.16.16-.37.24-.59.22a.758.758 0 0 1-.55-.31l-2.7-3.83-3.82-2.69a.77.77 0 0 1-.32-.55.72.72 0 0 1 .22-.59l2.11-2.11c.2-.2.5-.27.77-.18l2.32.8 3.44-3.44c.29-.29.77-.29 1.06 0s.29.77 0 1.06l-3.78 3.78c-.2.2-.5.27-.77.18l-2.32-.8-1.15 1.15 3.2 2.25c.07.05.13.11.18.18l2.26 3.21 1.15-1.15-.81-2.33a.777.777 0 0 1 .18-.78l3.78-3.78c.16-.16.38-.24.61-.22.23.02.43.15.55.34l5.24 8.14 1.21-1.51-3.72-10.04c-.1-.28-.04-.58.17-.79l5.36-5.36c.53-.53.53-1.38 0-1.91-.51-.51-1.4-.51-1.91 0l-5.36 5.36c-.21.21-.52.27-.79.17l-10-3.72-1.52 1.21 6.26 4.03c.35.22.45.69.22 1.04-.22.35-.69.45-1.04.22L4.59 9.86a.745.745 0 0 1-.06-1.21l2.66-2.13c.2-.17.48-.22.72-.13l9.95 3.7 5.02-5.02c1.07-1.08 2.96-1.08 4.03 0a2.855 2.855 0 0 1 0 4.03l-5.02 5.02 3.71 9.96c.09.25.05.53-.12.73l-2.13 2.66c-.13.18-.35.29-.57.29z"/></svg>