<svg viewBox="0 0 32 32"><path d="M30.95 28.29h-1.18v-2.18c0-.41-.34-.75-.75-.75V15.19c.41 0 .75-.34.75-.75v-2.18h.92c.34 0 .64-.23.72-.55a.734.734 0 0 0-.35-.84L16.4 2.31a.77.77 0 0 0-.75 0L.97 10.86c-.29.17-.44.52-.35.84s.39.55.72.55h.92v2.18c0 .41.34.75.75.75h.01v10.17c-.41 0-.75.34-.75.75v2.18H1.05c-.41 0-.75.34-.75.75s.34.75.75.75h29.9c.41 0 .75-.34.75-.75s-.33-.74-.75-.74zm-3.42-2.93h-1.72V15.19h1.72v10.17zm-3.24 0c-.41 0-.75.34-.75.75v2.18h-4.4v-2.18c0-.41-.34-.75-.75-.75V15.19c.41 0 .75-.34.75-.75v-2.18h4.4v2.18c0 .41.34.75.75.75h.01v10.17h-.01zm-10.63 0c-.41 0-.75.34-.75.75v2.18h-4.4v-2.18c0-.41-.34-.75-.75-.75V15.19c.41 0 .75-.34.75-.75v-2.18h4.4v2.18c0 .41.34.75.75.75h.01v10.17h-.01zm3.98-11.67h-3.23v-1.43h3.23v1.43zm-2.47 1.5h1.72v10.17h-1.72V15.19zm13.11-1.5h-3.23v-1.43h3.23v1.43zM16.03 3.83l11.9 6.93H4.13l11.9-6.93zm-9.02 8.43v1.43H3.77v-1.43h3.24zm-2.48 2.93h1.72v10.17H4.53V15.19zm-.76 13.1v-1.43H7v1.43H3.77zm10.64 0v-1.43h3.23v1.43h-3.23zm10.63 0v-1.43h3.23v1.43h-3.23z"/></svg>