<svg viewBox="0 0 32 32"><rect/><path d="M24.41 26.29h-.26c.03-.15.06-.3.06-.45v-.17c0-1.08-.88-1.95-1.95-1.95h-5.42v-5.45c.48-.11.94-.32 1.3-.65 1.14-1.04 2.08-2.28 2.87-3.6 5.76-2.32 6.52-9.12 6.55-9.41a.772.772 0 0 0-.19-.58.735.735 0 0 0-.56-.25H24.6c.18-1.05.26-1.74.27-1.85a.772.772 0 0 0-.19-.58.735.735 0 0 0-.56-.25H8.06c-.21 0-.41.09-.56.25-.14.14-.21.35-.19.56.01.1.08.8.27 1.85H5.19c-.21 0-.41.09-.56.25-.14.16-.21.37-.19.58.03.3.81 7.29 6.8 9.52.78 1.28 1.7 2.48 2.81 3.5.36.33.81.54 1.29.65v5.46h-4.69c-1.08 0-1.95.88-1.95 1.95v.17c0 .16.02.31.06.45H8.5c-1.22 0-2.21.99-2.21 2.21v.21c0 1.22.99 2.21 2.21 2.21h15.91c1.22 0 2.21-.99 2.21-2.21v-.21c-.01-1.23-1-2.21-2.21-2.21zM24.3 5.26h1.63c-.31 1.44-1.22 4.43-3.66 6.31 1.01-2.26 1.64-4.53 2.03-6.31zm-18.22 0h1.8c.4 1.83 1.05 4.18 2.11 6.49-2.62-1.86-3.59-5-3.91-6.49zm8.98 11.24C10.73 12.53 9.28 5.07 8.91 2.6h14.35c-.37 2.48-1.81 9.93-6.14 13.9-.26.24-.64.36-1.03.36h-.02c-.37-.01-.75-.13-1.01-.36zm-4.86 9.16c0-.25.2-.45.45-.45h11.59c.25 0 .45.2.45.45v.17c0 .25-.2.45-.45.45h-11.6c-.25 0-.45-.2-.45-.45v-.17zm14.91 3.04c0 .39-.32.71-.71.71H8.5c-.39 0-.71-.32-.71-.71v-.21c0-.39.32-.71.71-.71h15.9c.39 0 .71.32.71.71v.21zM17.8 11.26c.11.06.23.09.35.09a.747.747 0 0 0 .74-.87l-.33-1.91 1.39-1.35a.749.749 0 0 0-.42-1.28l-1.92-.28-.86-1.74c-.25-.51-1.09-.51-1.35 0l-.86 1.74-1.92.28c-.28.04-.52.24-.61.51-.09.27-.01.57.19.77l1.39 1.35-.33 1.91c-.05.28.07.57.3.73.23.17.54.19.79.06l1.71-.9 1.74.89zm-2.78-2.04.14-.8a.742.742 0 0 0-.22-.66l-.58-.57.8-.12c.25-.04.46-.19.57-.41l.36-.73.36.73c.11.22.32.38.57.41l.8.12-.58.57c-.18.17-.26.42-.22.66l.14.8-.72-.38a.73.73 0 0 0-.7 0l-.72.38z"/></svg>