<svg xmlns="http://www.w3.org/2000/svg" xml:space="preserve" style="enable-background:new 0 0 36 36" viewBox="0 0 36 36"><path d="M30.6 3.4h-1.3V1.9c0-1.1-.9-1.9-1.9-1.9s-1.9.9-1.9 1.9v1.5H10.2V1.9c0-1-.9-1.9-1.9-1.9S6.4.9 6.4 1.9v1.5h-1C2.5 3.4 0 6 0 9v21.4C0 33.5 2.4 36 5.4 36h25.3c3 0 5.3-2.5 5.3-5.6V9c0-3.1-2.4-5.6-5.4-5.6zM5.4 7.2h1v1.3c0 1.1.9 1.9 1.9 1.9s1.9-.9 1.9-1.9V7.2h15.4v1.3c0 1.1.9 1.9 1.9 1.9s1.9-.9 1.9-1.9V7.2h1.3c.9 0 1.5.7 1.5 1.8v3.6H3.8V9c0-.8.7-1.8 1.6-1.8zm25.2 25H5.4c-.9 0-1.5-.7-1.5-1.8V16.5h28.3v13.9c0 1.1-.7 1.8-1.6 1.8z"/></svg>