<svg xmlns="http://www.w3.org/2000/svg" viewBox="0 0 20 20"><path d="M18.59 11.59c-.82-.44-1.93-.77-3.26-.96-.72-.12-2.05-.34-2.82 1.11l-.12.22C10.67 11 8.77 9.52 7.76 7.33l.9-.46c.49-.25.82-.74.85-1.27.05-.9-.22-2.13-.84-3.71C8.02.52 7.16.01 5.51.01H2.53C1.28.01.23.97.1 2.23c-.48 4.64.86 8.8 3.9 12.02 3.79 4.02 9.41 5.74 12.43 5.74h.32c1.05-.04 3.25-.12 3.25-2.92v-3.08c0-1-.54-1.91-1.41-2.38ZM18 17.06c0 .74 0 .87-1.33.92-2.49.11-7.76-1.44-11.21-5.1-2.67-2.83-3.8-6.34-3.37-10.44.02-.24.21-.42.44-.42h2.98c1 0 1.09.19 1.32.67.41 1.04.64 1.92.68 2.52l-1.47.76a1 1 0 0 0-.49 1.21c.97 2.92 3.33 5.35 6.81 7.03.48.23 1.05.05 1.31-.41l.61-1.09c.06-.1.09-.14.09-.15.05-.01.2-.02.66.05 1.1.16 2.01.42 2.62.75.22.12.36.36.36.62v3.08Z"/></svg>