<svg viewBox="0 0 20 20"><path d="m18.91 13.54-1.87-1.78c-1.02-.96-2.23-1-3.1-.09l-1 1.13a11.61 11.61 0 0 1-3.52-2.35c-1.04-.96-1.88-2.1-2.5-3.31L8 6.01c.85-.9.71-2.17-.35-3.18L5.77 1.05c-.95-.9-2.46-.86-3.36.09L.74 2.9C-.51 4.21.33 7.01.75 8.15c.89 2.42 2.47 4.79 4.46 6.68 3.15 2.99 7.15 4.58 9.78 4.58 1.04 0 1.86-.25 2.34-.75L19 16.9c.9-.96.86-2.46-.09-3.36zm-1.37 1.98-1.67 1.75c-.69.57-5.41-.2-9.3-3.9C2.69 9.68 1.66 5 2.2 4.27l1.67-1.75c.09-.1.2-.12.26-.12.07 0 .17.01.27.1l1.87 1.78c.21.2.27.35.28.35L5.46 5.76c-.55.59-.69 1.44-.34 2.19.73 1.5 1.72 2.83 2.92 3.95 1.19 1.16 2.58 2.08 4.13 2.74.75.3 1.59.12 2.15-.47l1.06-1.16c.03 0 .13.05.29.2l1.87 1.78c.14.14.15.38 0 .53zm-7.05-9.46c-.35-.37-.37-.95-.04-1.34l1.96-2.29a.999.999 0 1 1 1.52 1.3l-.59.69h4.6c.55 0 1 .45 1 1s-.45 1-1 1h-4.35l.41.43a.996.996 0 0 1-.73 1.68c-.26 0-.53-.1-.73-.31l-2.05-2.16z"/></svg>