<svg viewBox="0 0 32 32"><path d="M27.84 19.46c.56-.48.88-1.18.88-1.92V8.72c0-1.12-.91-2.04-2.04-2.04s-2.04.91-2.04 2.04v4.73c-.09-.02-.18-.04-.27-.05-.55-.04-1.06.13-1.47.49l-3.47 3.01a2.72 2.72 0 0 0-.93 2.04v3.89h-1.12c-.41 0-.75.34-.75.75v3.61c0 .41.34.75.75.75h9.43c.41 0 .75-.34.75-.75v-3.61c0-.41-.34-.75-.75-.75h-1.67v-1.04l2.7-2.33zm-1.78 4.88v2.11h-7.93v-2.11h7.93zm-2.16-3.46c-.01.01-.01.02-.02.02-.04.04-.07.08-.1.13-.03.04-.06.07-.07.11-.02.04-.02.08-.03.13-.01.05-.03.1-.03.16 0 .01-.01.02-.01.03v1.39h-3.65v-3.89c0-.35.15-.68.42-.91l3.47-3.01c.11-.09.24-.13.38-.13.14.01.27.07.36.18a.52.52 0 0 1-.05.74l-3.18 2.76c-.31.27-.35.74-.08 1.06.27.31.75.35 1.06.08l3.18-2.76c.41-.35.65-.84.69-1.38.02-.28-.02-.55-.1-.8V8.72c0-.3.24-.54.54-.54s.54.24.54.54v8.82c0 .3-.13.59-.36.79l-2.96 2.55zm-9.28 1.96H13.5v-3.89c0-.79-.34-1.53-.93-2.04L9.1 13.89a2.01 2.01 0 0 0-1.47-.49c-.09.01-.18.03-.27.05V8.72c0-1.12-.91-2.04-2.04-2.04s-2.03.92-2.03 2.04v8.82c0 .74.32 1.44.88 1.92l2.69 2.33v1.04H5.19c-.41 0-.75.34-.75.75v3.61c0 .41.34.75.75.75h9.43c.41 0 .75-.34.75-.75v-3.61a.74.74 0 0 0-.75-.74zm-9.47-4.51c-.23-.2-.36-.48-.36-.79V8.72c0-.3.24-.54.54-.54s.54.24.54.54v6.05c-.26.75-.05 1.62.59 2.18l3.19 2.76c.31.27.79.24 1.06-.08.27-.31.24-.79-.08-1.06l-3.19-2.76a.523.523 0 0 1-.05-.74c.09-.1.22-.17.36-.18.14-.01.27.03.38.13l3.47 3.01c.26.23.42.56.42.91v3.89H8.36v-1.39c0-.01-.01-.02-.01-.03 0-.05-.02-.1-.03-.16l-.03-.13c-.02-.04-.05-.07-.07-.11-.03-.04-.06-.09-.1-.13-.01-.01-.01-.02-.02-.02l-2.95-2.53zm8.72 8.12H5.94v-2.11h7.94v2.11zm8.41-16.12A6.29 6.29 0 0 0 16 4.05c-3.46 0-6.28 2.82-6.28 6.28s2.82 6.28 6.28 6.28c3.46 0 6.28-2.81 6.28-6.28zM16 15.11a4.78 4.78 0 1 1 0-9.56 4.78 4.78 0 0 1 0 9.56zm2.19-7.36h-1.23c.15.21.26.44.35.68h.89c.28 0 .5.22.5.5s-.22.5-.5.5h-.78c-.12 1.24-1.13 2.21-2.38 2.21l2.24 2.23c.2.19.2.51 0 .71a.485.485 0 0 1-.7 0l-3.11-3.08c-.2-.19-.2-.51 0-.71.1-.1.23-.15.35-.15h1.21c.7 0 1.28-.53 1.39-1.21h-2.6c-.28 0-.5-.22-.5-.5s.22-.5.5-.5h2.4c-.25-.41-.69-.68-1.19-.68h-1.21c-.28 0-.5-.22-.5-.5s.22-.5.5-.5h4.38c.28 0 .5.22.5.5s-.24.5-.51.5z"/></svg>