<svg viewBox="0 0 20 20"><path d="M19.93 7.04c0-1.59-1.3-2.88-2.89-2.88h-1.75V2.94C15.29 1.35 14 .05 12.4.05H7.59C6 .06 4.71 1.35 4.71 2.94v1.21H2.96C1.37 4.15.08 5.44.07 7.04v1.95c0 .42.09.81.26 1.17-.16.32-.26.67-.26 1.03v5.44c0 1.83 1.3 3.32 2.89 3.32h14.09c1.59 0 2.89-1.49 2.89-3.32v-5.44c0-.36-.09-.71-.26-1.03.16-.36.26-.75.26-1.17V7.04zM6.71 2.94c0-.49.4-.89.89-.89h4.81c.49 0 .89.4.89.89v1.21H6.71V2.94zm-4.64 4.1c0-.49.4-.89.89-.89h14.08c.49 0 .89.4.89.89v1.95c0 .49-.4.89-.89.89h-4c-.18-1-1.04-1.75-2.08-1.75H9.13c-1.04 0-1.9.75-2.08 1.74h-4.1c-.49 0-.89-.4-.89-.89V7.04zm9.01 5.04c0 .03-.01.06-.03.08-.01.01-.02.01-.03.01-.02.01-.03.02-.05.02H9.13c-.06 0-.11-.05-.11-.11v-1.84c0-.06.05-.11.11-.11h1.83c.06 0 .11.05.11.11v1.84zm5.96 5.86H2.96c-.47 0-.89-.62-.89-1.32v-4.91c.28.09.58.15.89.15h4.06v.21c0 1.17.95 2.11 2.11 2.11h1.83c.29 0 .57-.06.82-.17a2.11 2.11 0 0 0 1.29-1.95v-.21h3.96c.31 0 .61-.06.89-.15v4.91c.01.72-.41 1.33-.88 1.33z"/></svg>