<svg viewBox="0 0 20 20"><path d="M4.67 17.89c0 .55-.45 1-1 1H1.4c-.55 0-1-.45-1-1V2.1c0-.55.45-1 1-1h2.27c.55 0 1 .45 1 1s-.45 1-1 1H2.4v13.79h1.27c.55 0 1 .45 1 1zM18.6 1.1h-2.27c-.55 0-1 .45-1 1s.45 1 1 1h1.27v13.79h-1.27c-.55 0-1 .45-1 1s.45 1 1 1h2.27c.55 0 1-.45 1-1V2.1c0-.55-.44-1-1-1zm-2.8 7.41.16-2.83a.886.886 0 0 0-.06-.39c-.03-.08-.08-.15-.13-.22-.03-.04-.04-.08-.07-.11-.03-.04-.08-.06-.12-.09-.06-.05-.12-.11-.19-.14a1.02 1.02 0 0 0-.38-.1l-2.83-.16c-.51-.03-1.02.39-1.05.94-.03.55.39 1.02.94 1.05l.42.02-6.48 5.78.02-.42a.996.996 0 0 0-.94-1.05c-.52-.03-1.02.39-1.05.94l-.16 2.83c-.02.43.23.8.59.96.02.01.04.01.06.02.09.03.18.07.29.07l2.83.16h.06a.996.996 0 0 0 .06-1.99l-.42-.02 6.48-5.78-.03.41c-.03.55.39 1.02.94 1.05h.06c.53.01.97-.4 1-.93z"/></svg>