<svg viewBox="0 0 20 23"><path fill="#666" stroke="#666" d="M16.31 13.429c0-2.164-1.73-3.926-3.855-3.926-2.126 0-3.856 1.762-3.856 3.926s1.73 3.926 3.856 3.926c2.125 0 3.855-1.762 3.855-3.926Zm-3.855 2.65c-1.436 0-2.602-1.188-2.602-2.65s1.166-2.65 2.602-2.65c1.435 0 2.601 1.188 2.601 2.65s-1.166 2.65-2.601 2.65Zm5.435 2.687c.113.21.1.466-.031.664a.631.631 0 0 1-.596.274l-1.166-.153-.501 1.085a.624.624 0 0 1-.546.364h-.019a.636.636 0 0 1-.551-.332l-1.198-2.215a.643.643 0 0 1 .25-.868.625.625 0 0 1 .854.255l.601 1.117.17-.37a.644.644 0 0 1 .646-.364l.394.051-.639-1.18a.643.643 0 0 1 .25-.869.623.623 0 0 1 .853.255l1.23 2.286Zm-6.357-.313-1.198 2.215a.629.629 0 0 1-.551.332h-.02a.616.616 0 0 1-.545-.364l-.501-1.085-1.166.153a.619.619 0 0 1-.596-.274.647.647 0 0 1-.031-.664l1.229-2.28a.629.629 0 0 1 .852-.255.654.654 0 0 1 .251.869l-.64 1.18.396-.05a.621.621 0 0 1 .645.363l.17.37.601-1.117a.629.629 0 0 1 .853-.255.64.64 0 0 1 .25.862ZM19 2.87v9.831c0 1.034-.765 1.87-1.705 1.87a.635.635 0 0 1-.627-.638c0-.35.282-.638.627-.638.244 0 .451-.275.451-.594v-9.83c0-.326-.207-.594-.451-.594H2.705c-.244 0-.451.274-.451.593v9.831c0 .326.207.594.451.594h4.659c.344 0 .627.287.627.638a.635.635 0 0 1-.627.639H2.705c-.94 0-1.705-.843-1.705-1.87V2.87C1 1.836 1.765 1 2.705 1h14.59C18.235.994 19 1.836 19 2.87ZM4.48 4.326c0-.351.282-.638.627-.638h9.09c.345 0 .627.287.627.638a.635.635 0 0 1-.627.638h-9.09a.63.63 0 0 1-.627-.638Zm9.717 3.568h-9.09a.635.635 0 0 1-.627-.638c0-.351.282-.638.627-.638h9.09c.345 0 .627.287.627.638a.635.635 0 0 1-.627.638ZM7.245 9.548c.344 0 .626.287.626.638a.635.635 0 0 1-.626.638H5.107a.635.635 0 0 1-.627-.638c0-.351.282-.638.627-.638h2.138Zm6.683 3.632-.49.485a.238.238 0 0 0-.062.204l.113.684a.228.228 0 0 1-.326.242l-.602-.325a.235.235 0 0 0-.207 0l-.602.325c-.163.09-.357-.051-.326-.242l.113-.684a.244.244 0 0 0-.063-.204l-.489-.485c-.131-.134-.056-.364.126-.39l.677-.101a.22.22 0 0 0 .17-.128l.3-.626a.22.22 0 0 1 .401 0l.301.626a.22.22 0 0 0 .17.128l.677.102c.175.025.25.255.119.389Z"/></svg>