<svg viewBox="0 0 32 32"><path d="M21.1 1.68H10.9c-3.51 0-6.36 2.85-6.36 6.36v15.21c0 .95.78 1.73 1.73 1.73h3.99l-1.13 1.9H7.11c-.41 0-.75.34-.75.75s.34.75.75.75h1.12l-.99 1.66c-.21.36-.09.82.26 1.03.36.21.82.09 1.03-.26l1.45-2.43h12.03l1.45 2.43a.746.746 0 0 0 1.03.26c.36-.21.47-.67.26-1.03l-.99-1.66h1.12c.41 0 .75-.34.75-.75s-.34-.75-.75-.75h-2.02l-1.13-1.9h3.99c.95 0 1.73-.78 1.73-1.73V8.04c.01-3.5-2.84-6.36-6.35-6.36zm.02 25.21H10.88l1.13-1.9H20l1.12 1.9zm4.84-3.63c0 .13-.1.23-.23.23H6.27c-.13 0-.23-.1-.23-.23V8.04c0-2.68 2.18-4.86 4.86-4.86h10.2c2.68 0 4.86 2.18 4.86 4.86v15.22zM21.07 5.2H10.93a3.26 3.26 0 0 0-3.26 3.26v4.74c0 .41.34.75.75.75h15.16c.41 0 .75-.34.75-.75V8.47c0-1.8-1.46-3.27-3.26-3.27zm1.76 7.26H9.17V8.47c0-.97.79-1.76 1.76-1.76h10.14c.97 0 1.76.79 1.76 1.76v3.99zm-12.3 3.81c-1.52 0-2.75 1.23-2.75 2.75s1.23 2.75 2.75 2.75 2.75-1.23 2.75-2.75-1.23-2.75-2.75-2.75zm0 4a1.25 1.25 0 1 1 0-2.5 1.25 1.25 0 0 1 0 2.5zm10.94-4c-1.52 0-2.75 1.23-2.75 2.75s1.23 2.75 2.75 2.75 2.75-1.23 2.75-2.75-1.24-2.75-2.75-2.75zm0 4a1.25 1.25 0 1 1 0-2.5 1.25 1.25 0 0 1 0 2.5z"/></svg>