<svg viewBox="0 0 32 32"><path d="M17.59 22.98h4.11c.41 0 .75-.34.75-.75v-8.6c0-.25-.12-.48-.33-.62l-5.7-3.86a.756.756 0 0 0-.84 0l-5.7 3.86c-.21.14-.33.37-.33.62v8.6c0 .41.34.75.75.75h4.1c.41 0 .75-.34.75-.75v-3.99h1.68v3.99c.01.41.34.75.76.75zm-3.18-6.25c-.41 0-.75.34-.75.75v3.99h-2.6v-7.45L16 10.68l4.95 3.35v7.45h-2.61v-3.99c0-.41-.34-.75-.75-.75h-3.18zm10.28 8.67c.26.32.22.79-.1 1.06-1.15.95-2.44 1.69-3.83 2.21-.09.03-.18.05-.26.05-.3 0-.59-.19-.7-.49a.75.75 0 0 1 .44-.97c1.24-.46 2.38-1.13 3.4-1.97.32-.26.79-.21 1.05.11zm3.18-7.43c.11-.65.16-1.31.16-1.97 0-.66-.05-1.32-.16-1.97-.07-.41.21-.79.62-.86.41-.07.79.21.86.62a13.632 13.632 0 0 1 0 4.42.75.75 0 0 1-.74.63c-.04 0-.08 0-.12-.01a.747.747 0 0 1-.62-.86zM19.8 3.77a.76.76 0 0 1 .97-.44c1.39.52 2.68 1.27 3.83 2.22a.748.748 0 0 1-.48 1.33c-.17 0-.34-.06-.48-.17-1.02-.84-2.17-1.51-3.4-1.97a.75.75 0 0 1-.44-.97zM7.31 6.6a.758.758 0 0 1 .1-1.06c1.15-.95 2.44-1.69 3.83-2.21.39-.14.82.05.97.44a.75.75 0 0 1-.44.97A11.96 11.96 0 0 0 8.36 6.7c-.14.12-.31.17-.47.17-.22 0-.43-.09-.58-.27zm-3.18 7.43c-.11.65-.16 1.31-.16 1.97 0 .66.05 1.32.16 1.97.07.41-.21.79-.62.86-.04.01-.08.01-.12.01a.75.75 0 0 1-.74-.63 13.632 13.632 0 0 1 0-4.42c.07-.41.45-.68.86-.62.41.07.68.45.62.86zm8.08 14.2c-.11.3-.4.49-.7.49-.09 0-.18-.02-.26-.05-1.39-.52-2.68-1.27-3.83-2.21a.748.748 0 0 1-.1-1.06c.26-.32.74-.37 1.06-.1 1.02.84 2.17 1.5 3.4 1.97.37.14.57.58.43.96zM16 6.14a2.86 2.86 0 1 0 .001-5.719A2.86 2.86 0 0 0 16 6.14zm0-4.22c.75 0 1.36.61 1.36 1.36S16.75 4.64 16 4.64c-.75 0-1.36-.61-1.36-1.36s.61-1.36 1.36-1.36zM3.56 12.12c.45.26.94.38 1.43.38.99 0 1.95-.51 2.48-1.43.38-.66.48-1.43.29-2.17-.2-.74-.67-1.35-1.33-1.74a2.89 2.89 0 0 0-3.92 1.05 2.862 2.862 0 0 0 1.05 3.91zm.25-3.16c.25-.44.71-.68 1.18-.68.23 0 .46.06.68.18.31.19.54.48.63.83.09.35.05.72-.14 1.03-.38.65-1.21.87-1.86.5-.64-.38-.87-1.21-.49-1.86zm3.65 11.97a2.88 2.88 0 0 0-3.91-1.05 2.871 2.871 0 0 0-1.05 3.91c.54.91 1.5 1.43 2.49 1.43.48 0 .98-.12 1.42-.38a2.865 2.865 0 0 0 1.05-3.91zm-1.79 2.61c-.65.38-1.48.15-1.86-.5a1.36 1.36 0 1 1 2.36-1.36c.37.65.14 1.48-.5 1.86zM16 25.86a2.86 2.86 0 1 0-.001 5.719A2.86 2.86 0 0 0 16 25.86zm0 4.22c-.75 0-1.36-.61-1.36-1.36s.61-1.36 1.36-1.36c.75 0 1.36.61 1.36 1.36s-.61 1.36-1.36 1.36zm13.78-8.46c-.2-.74-.67-1.35-1.33-1.74-.66-.38-1.43-.49-2.17-.29s-1.35.67-1.74 1.33a2.862 2.862 0 0 0 2.47 4.29c.99 0 1.95-.51 2.48-1.43.38-.65.48-1.42.29-2.16zm-1.59 1.42c-.38.65-1.21.87-1.86.5a1.37 1.37 0 0 1-.5-1.86c.18-.31.47-.54.83-.63.35-.09.72-.05 1.03.14s.54.47.63.83c.1.34.05.7-.13 1.02zm-3.65-11.97c.38.66 1 1.13 1.74 1.33a2.887 2.887 0 0 0 2.18-.28c.66-.38 1.13-1 1.33-1.74.2-.74.1-1.51-.29-2.17-.38-.66-1-1.13-1.74-1.33-.74-.2-1.51-.1-2.17.29-.66.38-1.13 1-1.33 1.74-.21.73-.1 1.5.28 2.16zm1.16-1.78c.09-.35.32-.64.63-.83.21-.12.44-.18.68-.18.12 0 .24.02.35.05.35.09.64.32.83.63s.23.68.14 1.03-.32.64-.63.83c-.32.18-.68.23-1.03.14s-.64-.32-.83-.63c-.19-.32-.23-.69-.14-1.04z"/></svg>