<svg viewBox="0 0 32 32"><path d="M10.53 7.73c0 .46-.37.83-.83.83H8.09v1.62c0 .46-.37.83-.83.83s-.83-.37-.83-.83V7.73c0-.46.37-.83.83-.83h2.45c.45 0 .82.37.82.83zm5.37-.83h-2.45c-.46 0-.83.37-.83.83v2.45c0 .46.37.83.83.83s.83-.37.83-.83V8.56h1.62c.46 0 .83-.37.83-.83 0-.46-.37-.83-.83-.83zm-6.19 5.97H7.26c-.46 0-.83.37-.83.83v2.45c0 .46.37.83.83.83s.83-.37.83-.83v-1.62h1.62c.46 0 .83-.37.83-.83s-.38-.83-.83-.83zm6.19 0h-2.45c-.46 0-.83.37-.83.83v2.45c0 .46.37.83.83.83s.83-.37.83-.83v-1.62h1.62c.46 0 .83-.37.83-.83s-.37-.83-.83-.83zm-6.19 5.97H7.26c-.46 0-.83.37-.83.83v2.45c0 .46.37.83.83.83s.83-.37.83-.83V20.5h1.62c.46 0 .83-.37.83-.83s-.38-.83-.83-.83zm6.19 0h-2.45c-.46 0-.83.37-.83.83v2.45c0 .46.37.83.83.83s.83-.37.83-.83V20.5h1.62c.46 0 .83-.37.83-.83s-.37-.83-.83-.83zm15.83 6.83c0 .46-.37.83-.83.83H1.1c-.46 0-.83-.37-.83-.83s.37-.83.83-.83h1.76V4.03c0-.46.37-.83.83-.83h15.78c.46 0 .83.37.83.83v5.8h8.01c.46 0 .83.37.83.83v14.18h1.76c.46 0 .83.37.83.83zm-27.21-.83h14.12V4.86H4.52v19.98zm22.96 0V11.49H20.3v13.35h7.18z"/></svg>