<svg viewBox="0 0 20 20"><path d="M14.49 7.38c.09-.26.14-.54.1-.84a1.833 1.833 0 0 0-2.05-1.59c-.16.02-.31.07-.45.12L10.03 3.1l-.01-.01c-.43-.39-1.05-.49-1.52-.28-.55.22-.91.76-.91 1.32-.03 2.09-.88 3.79-1.5 4.76-.59-.06-1.2.15-1.64.62L.98 13.2c-.37.39-.56.9-.54 1.44.02.54.24 1.03.63 1.4l2.91 2.74a2.02 2.02 0 0 0 2.84-.09l.01-.01.91.97c.2.21.46.32.73.32.24 0 .49-.09.68-.27.4-.38.42-1.01.05-1.41l-1-1.07L10.29 15c.38-.4.54-.93.52-1.44.91-.68 2.57-1.67 4.69-1.81.58-.02 1.09-.39 1.29-.92.2-.52.08-1.12-.34-1.55l-1.96-1.9zm-8.58 3.49s0 .01 0 0c0 .01 0 0 0 0zm-.56 6.44-2.91-2.75 3.46-3.69c.01.01.03.02.04.03l.16.15 2.73 2.57-3.48 3.69zm4.47-5.51-2-1.88c.62-1 1.41-2.58 1.68-4.55l4.72 4.53c-1.92.36-3.45 1.22-4.4 1.9zm5.2-7.08a.996.996 0 0 1 .04-1.41l.84-.79a.996.996 0 0 1 1.41.04c.38.4.36 1.04-.04 1.41l-.84.79c-.19.18-.44.27-.68.27a.94.94 0 0 1-.73-.31zm-3.35-2.6.07-1.14c.03-.55.48-.96 1.06-.94.55.03.97.51.94 1.06l-.07 1.14c-.03.53-.47.94-1 .94h-.06a.992.992 0 0 1-.94-1.06zm7.89 5.11c0 .55-.45 1-1 1h-1.15c-.55 0-1-.45-1-1s.45-1 1-1h1.15c.55 0 1 .45 1 1z"/></svg>