<svg viewBox="0 0 20 20"><path d="M18.82 17.61h-.29v-7.09c.65-.76 1.08-1.78 1.2-2.93.01-.02.04-.02.05-.04.19-.24.26-.55.19-.85l-1.33-5.55c-.11-.45-.51-.77-.97-.77H2.33c-.46 0-.86.32-.97.77L.03 6.7c-.07.3 0 .61.19.85.01.02.03.02.05.04.12 1.15.56 2.17 1.2 2.93v7.09h-.29c-.55 0-1 .45-1 1s.45 1 1 1h17.64c.55 0 1-.45 1-1s-.45-1-1-1zM2.34 7.93h3.62c-.29 1.11-1 1.92-1.82 1.92s-1.53-.81-1.8-1.92zm13.52 1.92c-.81 0-1.53-.81-1.81-1.92h3.61c-.27 1.11-.99 1.92-1.8 1.92zM3.12 2.39h13.75l.85 3.55H2.27l.85-3.55zm8.69 5.54c-.28 1.11-1 1.92-1.81 1.92s-1.53-.81-1.81-1.92h3.62zm-8.34 9.68v-5.84c.22.05.44.08.67.08 1.17 0 2.21-.66 2.93-1.67.72 1.02 1.76 1.67 2.93 1.67s2.21-.66 2.93-1.67c.72 1.02 1.76 1.67 2.93 1.67.23 0 .45-.04.67-.08v5.84H3.47z"/></svg>