<svg viewBox="0 0 20 20"><path d="M17.572 11.032c-.221 0-.453-.07-.674-.12a9.502 9.502 0 0 1-1.319-.393 2.013 2.013 0 0 0-2.496 1.006l-.221.453a12.26 12.26 0 0 1-2.678-2.013 12.26 12.26 0 0 1-2.013-2.677l.423-.282A2.013 2.013 0 0 0 9.6 4.51c-.16-.43-.29-.871-.392-1.319a7.467 7.467 0 0 1-.12-.684A3.02 3.02 0 0 0 6.067 0h-3.02a3.02 3.02 0 0 0-3.02 3.433A19.124 19.124 0 0 0 16.656 20h.383a3.02 3.02 0 0 0 2.013-.765 3.02 3.02 0 0 0 1.006-2.265v-3.02a3.02 3.02 0 0 0-2.486-2.918Zm.503 6.039c0 .29-.125.564-.342.755a1.057 1.057 0 0 1-.825.252A17.11 17.11 0 0 1 2.102 3.2a1.097 1.097 0 0 1 .251-.825c.191-.217.466-.342.755-.342h3.02c.483-.011.905.322 1.006.795.04.275.091.547.151.815.117.53.271 1.052.463 1.56l-1.409.654a1.007 1.007 0 0 0-.493 1.339 14.585 14.585 0 0 0 7.046 7.046c.245.1.52.1.765 0 .253-.091.46-.28.573-.524l.624-1.409c.52.186 1.052.34 1.59.463.27.06.541.11.816.151.472.101.806.524.795 1.007l.02 3.14Z"/></svg>