<svg viewBox="0 0 32 32"><path d="M27.77 20.6c-1.14-.42-1.43-.82-1.5-.97-.07-.16-.02-.31.06-.54.04-.07.22-.24.35-.39.84-.88 2.42-2.5 2.48-5.38.03-1.19-.33-2.17-1.05-2.92-1.29-1.35-3.3-1.4-3.4-1.4-.24 0-.47.02-.7.04-.02-1.66-.53-3.05-1.55-4.12-1.96-2.04-5.02-2.12-5.17-2.13h-2.6c-.13 0-3.19.08-5.15 2.13C8.52 5.99 8 7.38 7.99 9.04 7.72 9.01 7.45 9 7.17 9c-.08 0-2.09.06-3.39 1.4-.72.75-1.08 1.74-1.05 2.92.06 2.88 1.64 4.51 2.48 5.38.14.14.31.32.36.41.08.21.13.36.06.52-.07.15-.35.55-1.5.97C.96 21.77.84 24.19.84 24.29c-.01.45.33.82.79.85h.04c.43 0 .8-.34.83-.78 0-.06.13-1.44 2.21-2.21 1.29-.48 2.08-1.08 2.43-1.84.36-.8.1-1.5-.04-1.85-.11-.31-.36-.56-.69-.91-.74-.76-1.97-2.04-2.02-4.27-.05-2.48 2.52-2.62 2.8-2.63.31 0 .61.03.91.08.5 3.62 2.5 5.78 3.64 7 .25.27.56.61.62.71l.05.13c.13.34.29.77.08 1.25-.21.46-.86 1.16-2.73 1.86-4.87 1.81-4.86 5.44-4.86 5.59.01.45.38.81.83.81.45 0 .82-.38.83-.83 0-.11.06-2.64 3.78-4.02 1.97-.73 3.17-1.62 3.67-2.73.5-1.11.14-2.07-.04-2.53l-.04-.1c-.14-.4-.47-.75-.96-1.28-.45-.49-1.02-1.1-1.56-1.87.25-2.2 1.89-4.48 3.62-6.33 4.07 1.64 5.73 5.51 5.75 5.55.04.09.09.16.14.23-.65 1.03-1.39 1.81-1.96 2.4-.52.54-.86.89-1.01 1.3l-.04.1c-.18.46-.54 1.42-.04 2.53.5 1.11 1.7 2 3.67 2.73 3.75 1.39 3.94 3.95 3.94 4.05.01.45.38.8.83.8h.03c.46-.02.82-.4.8-.86-.01-.15-.19-3.75-5.03-5.55-1.88-.7-2.52-1.4-2.73-1.86-.22-.48-.05-.91.08-1.25l.04-.11c.06-.12.39-.46.65-.73 1.18-1.22 3.26-3.39 3.77-7.02.26-.04.53-.07.79-.07.29.01 2.87.15 2.82 2.63-.05 2.23-1.28 3.51-2.02 4.27-.34.35-.58.6-.71.97-.11.3-.38 1-.02 1.8.34.76 1.14 1.36 2.43 1.84 2.08.77 2.21 2.15 2.21 2.19.02.45.38.8.83.8h.03c.46-.02.82-.4.8-.86-.02-.08-.14-2.49-3.31-3.67zM9.63 9.28c-.1-4.64 4.89-4.82 5.08-4.82h2.07c-1.98 1.65-5.24 4.74-6.53 8.08-.35-.93-.59-2-.62-3.26zm12.16 3.08c-.77-1.35-2.5-3.77-5.54-5.21 1.21-1.14 2.29-1.99 2.79-2.38 1.5.47 3.39 1.63 3.33 4.51a9.178 9.178 0 0 1-.58 3.08z"/></svg>