<svg viewBox="0 0 20 20"><path d="M18.74 10.49V6.46c0-2.06-1.68-3.74-3.74-3.74H5c-2.06 0-3.74 1.68-3.74 3.74v4.03c-.74.34-1.25 1.08-1.25 1.94v2.77c0 1.08.8 1.96 1.83 2.11v.9c0 .55.45 1 1 1s1-.45 1-1v-.87h12.31v.87c0 .55.45 1 1 1s1-.45 1-1v-.9a2.134 2.134 0 0 0 1.83-2.11v-2.77c.01-.86-.5-1.6-1.24-1.94zm-.89 1.8c.08 0 .14.06.14.14v2.77c0 .08-.06.14-.14.14H2.15c-.08 0-.14-.06-.14-.14v-2.77c0-.08.06-.14.14-.14h15.7zm-10.04-2H5.87V9.6c0-.21.17-.38.38-.38h1.19c.21 0 .38.17.38.38v.69zm6.32 0h-1.94V9.6c0-.21.17-.38.38-.38h1.19c.21 0 .38.17.38.38v.69zM3.26 6.46c0-.96.78-1.74 1.74-1.74h10c.96 0 1.74.78 1.74 1.74v3.83h-.61V9.6c0-1.31-1.07-2.38-2.38-2.38h-1.19c-1.31 0-2.38 1.07-2.38 2.38v.69h-.37V9.6c0-1.31-1.07-2.38-2.38-2.38H6.25c-1.31 0-2.38 1.07-2.38 2.38v.69h-.61V6.46z"/></svg>