<svg viewBox="0 0 32 32"><path d="M15.25 5.05V2.2c0-.41.34-.75.75-.75s.75.34.75.75v2.85c0 .41-.34.75-.75.75s-.75-.34-.75-.75zM9.39 8.1c.15.15.34.22.53.22s.38-.07.53-.22c.29-.29.29-.77 0-1.06L8.43 5.02c-.29-.29-.77-.29-1.06 0s-.29.77 0 1.06L9.39 8.1zM7.4 12.91H4.54c-.41 0-.75.34-.75.75s.34.75.75.75H7.4c.41 0 .75-.34.75-.75s-.34-.75-.75-.75zm20.06 0h-2.85c-.41 0-.75.34-.75.75s.34.75.75.75h2.85c.41 0 .75-.34.75-.75s-.34-.75-.75-.75zm-5.38-4.59c.19 0 .38-.07.53-.22l2.02-2.02c.29-.29.29-.77 0-1.06s-.77-.29-1.06 0l-2.02 2.02c-.29.29-.29.77 0 1.06.15.15.34.22.53.22zm1.43 6.82c0 2.02-1.09 3.46-2.14 4.85-.26.34-.52.69-.76 1.04-.32.47-.57 1.77-.7 2.87h.14c.41 0 .75.34.75.75v2.38c0 .01 0 .02-.01.03 0 .01.01.02.01.03 0 3.47-2.71 3.47-4.01 3.47h-1.61c-1.3 0-4.01 0-4.01-3.47 0-.01 0-.02.01-.03 0-.01-.01-.02-.01-.03v-2.38c0-.41.34-.75.75-.75h.15c-.11-1.04-.34-2.35-.69-2.85-.25-.36-.52-.72-.79-1.07-1.05-1.38-2.14-2.82-2.14-4.83 0-4.15 3.38-7.53 7.53-7.53 4.15-.01 7.53 3.37 7.53 7.52zM12.67 26.28h6.63v-.88h-6.63v.88zm6.56 1.5h-6.51c.19 1.05.9 1.27 2.45 1.27h1.61c1.56 0 2.26-.22 2.45-1.27zm2.78-12.64c0-3.33-2.7-6.03-6.03-6.03s-6.03 2.71-6.03 6.03c0 1.51.89 2.69 1.83 3.93.28.37.57.75.83 1.13.6.88.85 2.65.95 3.65h1.83v-3.64a2.202 2.202 0 0 1-1.61-2.12 2.21 2.21 0 0 1 4.42 0c0 1.01-.69 1.86-1.61 2.12v3.64h1.8c.11-1.03.38-2.81.96-3.66.26-.37.53-.74.81-1.1.95-1.25 1.85-2.43 1.85-3.95zm-5 2.95c0-.56-.46-1.01-1.01-1.01s-1.01.45-1.01 1.01.45 1.01 1.01 1.01 1.01-.45 1.01-1.01z"/></svg>