<svg viewBox="0 0 20 20"><path d="M19.37 2.18c-.32-.32-.76-.5-1.21-.5H1.83c-.46 0-.89.18-1.21.5C.28 2.51.1 2.94.1 3.4v14.13a1.72 1.72 0 0 0 1.73 1.72c.47 0 .93-.19 1.27-.56l2.45-2.68h12.61c.95 0 1.72-.77 1.72-1.72V3.4c0-.46-.18-.89-.51-1.22zm-1.49 11.84H5.43c-.48 0-.94.2-1.27.56L2.1 16.82V3.68h15.78v10.34zM8.99 9.08V6.07c0-.55.45-1 1-1s1 .45 1 1v3.01c0 .55-.45 1-1 1s-1-.45-1-1zm-.01 2.97a.995.995 0 0 1-.08-.38c0-.27.11-.53.29-.71.29-.28.72-.37 1.09-.22.13.05.23.13.33.22.18.18.29.44.29.71 0 .13-.03.26-.08.38a.988.988 0 0 1-.54.54c-.12.05-.25.08-.38.08-.26 0-.52-.11-.71-.3a.988.988 0 0 1-.21-.32z"/></svg>