<svg viewBox="0 0 32 32"><rect/><path d="M8.35 7.51c1.75 0 3.18-1.43 3.18-3.18 0-1.75-1.43-3.18-3.18-3.18-1.75 0-3.18 1.43-3.18 3.18 0 1.76 1.43 3.18 3.18 3.18zm0-4.85c.93 0 1.68.75 1.68 1.68 0 .92-.75 1.68-1.68 1.68-.92 0-1.68-.75-1.68-1.68 0-.93.76-1.68 1.68-1.68zm3.59 26.61c-.29.94-1.14 1.57-2.12 1.57-.57 0-1.08-.22-1.47-.57-.39.35-.9.57-1.47.57-1.22 0-2.22-1-2.22-2.22v-8.01c-.31.13-.65.22-1.01.22a2.57 2.57 0 0 1-2.57-2.57c0-.01.01-.02.01-.03 0-.01-.01-.02-.01-.03v-5.32a3.97 3.97 0 0 1 3.96-3.96h6.61c.61 0 1.23.14 1.77.42.37.19.52.64.33 1.01-.18.37-.63.52-1.01.33a2.44 2.44 0 0 0-1.1-.26H5.05c-1.36 0-2.46 1.1-2.46 2.46v5.32c0 .01-.01.02-.01.03 0 .01.01.02.01.03 0 .59.48 1.07 1.07 1.07.46 0 .86-.3 1.01-.74v-4.51c0-.41.34-.75.75-.75s.75.34.75.75v14.54c0 .4.32.72.72.72s.72-.32.72-.72v-6.96c0-.41.34-.75.75-.75s.75.34.75.75v6.96c0 .4.32.72.72.72.32 0 .6-.2.69-.51.12-.4.54-.62.94-.5.38.13.61.55.48.94zm-.65-15.94c.41 0 .75.34.75.75v.86c0 .41-.34.75-.75.75s-.75-.34-.75-.75v-.86c0-.41.34-.75.75-.75zm13.16-5.82c1.75 0 3.18-1.43 3.18-3.18 0-1.75-1.43-3.18-3.18-3.18-1.75 0-3.18 1.43-3.18 3.18 0 1.76 1.43 3.18 3.18 3.18zm0-4.85c.92 0 1.68.75 1.68 1.68 0 .92-.75 1.68-1.68 1.68-.93 0-1.68-.75-1.68-1.68 0-.93.76-1.68 1.68-1.68zm2.9 6.25h-5.8c-1.47 0-2.77.98-3.31 2.5a.75.75 0 1 0 1.41.51c.33-.91 1.07-1.5 1.9-1.5h5.8c1.14 0 2.07 1.1 2.07 2.46v5.27c0 .59-.48 1.07-1.07 1.07-.14 0-.27-.03-.39-.08l-.41-1.43v-3.62c0-.41-.34-.75-.75-.75s-.75.34-.75.75v3.73c0 .07.01.14.03.21l1.69 5.93h-7.62c-.41 0-.75.34-.75.75s.34.75.75.75h.62v3.17c0 1.22 1 2.22 2.22 2.22.57 0 1.08-.22 1.47-.57.39.35.9.57 1.47.57 1.22 0 2.22-1 2.22-2.22v-3.17h.62c.24 0 .46-.11.6-.3s.19-.43.12-.66l-1.08-3.79a2.562 2.562 0 0 0 2.5-2.47c0-.02.01-.03.01-.05v-5.32c0-2.19-1.6-3.96-3.57-3.96zm-4.37 20.43c-.4 0-.72-.32-.72-.72v-3.17h1.44v3.17c0 .4-.32.72-.72.72zm3.66-.71c0 .4-.32.72-.72.72s-.72-.32-.72-.72v-3.17h1.44v3.17zm-4.54-13c-.41 0-.75-.34-.75-.75v-.8c0-.41.34-.75.75-.75s.75.34.75.75v.8c0 .42-.33.75-.75.75zm-6.59.22c1.25 0 2.27-1.02 2.27-2.27s-1.02-2.27-2.27-2.27-2.27 1.02-2.27 2.27 1.02 2.27 2.27 2.27zm0-3.14a.87.87 0 1 1-.001 1.741.87.87 0 0 1 .001-1.741zm6.7 5.75c0-1.05-.84-1.9-1.88-1.9h-9.62a1.9 1.9 0 1 0 0 3.8h1.58v8.48c0 1.08.88 1.96 1.96 1.96.48 0 .92-.17 1.26-.46.34.29.78.46 1.26.46 1.08 0 1.96-.88 1.96-1.96v-8.48h1.58c1.06-.01 1.9-.86 1.9-1.9zm-4.16.49c-.39 0-.7.31-.7.7v9.18a.56.56 0 1 1-1.12 0v-6.26c0-.39-.31-.7-.7-.7s-.7.31-.7.7v6.26a.56.56 0 1 1-1.12 0v-9.18c0-.39-.31-.7-.7-.7h-2.28c-.27 0-.5-.22-.5-.5s.22-.5.5-.5h9.62c.27 0 .48.22.48.5s-.22.5-.48.5h-2.3z"/></svg>