<svg xmlns="http://www.w3.org/2000/svg" xml:space="preserve" style="enable-background:new 0 0 13 14" viewBox="0 0 13 14"><path d="M1 4.9h5.9c.4 1.1 1.4 2 2.7 2 1.6 0 2.9-1.3 2.9-3s-1.3-3-2.9-3C8 .9 6.8 2.1 6.7 3.7H1c-.3 0-.6.3-.6.6s.3.6.6.6zm8.6-2.8c.9 0 1.7.8 1.7 1.8s-.7 1.8-1.7 1.8-1.7-.9-1.7-1.8.7-1.8 1.7-1.8zM12 9.9H6.1C6 8.4 4.8 7.2 3.3 7.2c-1.6 0-2.9 1.3-2.9 3s1.3 3 2.9 3c1.3 0 2.3-.8 2.7-2h6c.3 0 .6-.3.6-.6 0-.4-.3-.7-.6-.7zm-8.7 2c-.9 0-1.7-.8-1.7-1.8s.7-1.8 1.7-1.8c.9 0 1.7.8 1.7 1.8s-.8 1.8-1.7 1.8z" class="st0"/></svg>