<svg viewBox="0 0 16 16"><path d="M1.843 8.37h-.056v.1h.056z"/><path stroke="#FFF" d="M1.848 15H9.21a.847.847 0 0 0 .848-.838V6.78a.847.847 0 0 0-.848-.839H1.848A.847.847 0 0 0 1 6.78v7.382c0 .46.382.838.848.838ZM9.21 6.434c.2 0 .35.165.35.346v7.382a.35.35 0 0 1-.35.345H1.848a.35.35 0 0 1-.35-.345V6.779a.35.35 0 0 1 .35-.345H9.21Z"/><path stroke="#FFF" d="M10.3 12.53h1.44c.433 0 .79-.388.79-.86V4.33c0-.472-.357-.86-.79-.86H5.084c-.434 0-.79.388-.79.86v1.65h.465V4.33c0-.203.154-.354.325-.354h6.656c.186 0 .325.168.325.353v7.325c0 .202-.155.354-.325.354H10.3v.521Z"/><path stroke="#FFF" d="M12.253 10.059h1.877c.478 0 .87-.388.87-.877V1.86a.869.869 0 0 0-.87-.86H6.811a.869.869 0 0 0-.87.86v1.873h.512V1.86c0-.202.17-.354.358-.354h7.319c.205 0 .358.169.358.354v7.322c0 .202-.17.354-.358.354h-1.877v.523Z"/></svg>