<svg viewBox="0 0 32 32"><path d="M20.5 10.72c0-2.48-2.02-4.5-4.5-4.5s-4.5 2.02-4.5 4.5 2.02 4.5 4.5 4.5 4.5-2.02 4.5-4.5zm-7.8 0c0-1.82 1.48-3.3 3.3-3.3 1.82 0 3.3 1.48 3.3 3.3 0 1.82-1.48 3.3-3.3 3.3-1.82 0-3.3-1.48-3.3-3.3zm14.83 10.79h-6.94c-.14-.5-.59-.86-1.16-.86h-.33v-2.94a7.646 7.646 0 0 0 4.55-6.99c0-4.22-3.43-7.65-7.65-7.65S8.35 6.5 8.35 10.72c0 3.12 1.87 5.8 4.55 6.99v2.94h-.33c-.58 0-1.04.37-1.18.86H4.45c-1.26 0-2.29.94-2.29 2.11v2.35c0 1.15 1.03 2.09 2.29 2.09h6.94c.14.5.6.88 1.18.88h6.85c.57 0 1.03-.38 1.16-.88h6.94c1.27 0 2.31-.94 2.31-2.09v-2.35c.01-1.17-1.03-2.11-2.3-2.11zM9.85 10.72c0-3.39 2.76-6.15 6.15-6.15s6.15 2.76 6.15 6.15c0 3.39-2.76 6.15-6.15 6.15s-6.15-2.76-6.15-6.15zM16 18.37c.55 0 1.08-.06 1.6-.17v2.14h-3.2V18.2c.52.11 1.05.17 1.6.17zM3.66 25.96v-2.35c0-.33.36-.61.79-.61h6.88v3.55H4.45c-.43.01-.79-.26-.79-.59zm9.17-3.82h6.32v5.29h-6.32v-5.29zm15.51 3.82c0 .32-.37.59-.81.59h-6.88V23h6.88c.43 0 .81.28.81.61v2.35zM16 11.32c-.2 0-.39-.1-.5-.27-.18-.28-.1-.65.17-.83l1.35-.89c.28-.18.65-.1.83.17.18.28.1.65-.17.83l-1.35.89c-.1.06-.22.1-.33.1z"/></svg>