<svg viewBox="0 0 20 20"><path d="m7.611 11.5.104.006.103.02a.881.881 0 0 1 .682.857v6.73l-.007.104-.02.103c-.1.4-.452.683-.862.683h-5.49l-.142-.005-.144-.015A2.125 2.125 0 0 1 0 17.88v-5.492l.007-.103.02-.103c.1-.4.452-.683.862-.683h6.722Zm11.5 0c.41 0 .762.283.863.683l.02.103.006.103v5.492a2.125 2.125 0 0 1-1.835 2.102l-.144.015-.142.005h-5.49a.894.894 0 0 1-.863-.683l-.02-.103-.006-.103v-6.731c0-.411.28-.76.682-.857l.103-.02.104-.006h6.722ZM6.5 13.503H2l.001 4.156.006.07.017.062c.047.12.174.212.32.212H6.5v-4.5Zm11.5 0h-4.5v4.5h4.155a.346.346 0 0 0 .321-.212l.017-.063.006-.069.001-4.156ZM17.879 0l.142.005.144.015A2.125 2.125 0 0 1 20 2.122v5.492l-.007.103-.02.103c-.1.4-.452.683-.862.683h-6.722l-.104-.007-.103-.019a.881.881 0 0 1-.682-.857V.89l.007-.104.02-.103c.1-.4.452-.683.862-.683h5.49ZM7.61 0c.41 0 .762.283.863.683l.02.103.006.103v6.73a.88.88 0 0 1-.682.858l-.103.02-.104.006H.889a.894.894 0 0 1-.863-.683l-.02-.103L0 7.614V2.122C0 1.056.791.164 1.835.02L1.98.005 2.121 0h5.49Zm10.044 2H13.5v4.5H18l-.001-4.156-.006-.07-.017-.062a.346.346 0 0 0-.32-.212ZM6.5 2H2.345a.346.346 0 0 0-.321.212l-.017.062-.006.07L2 6.5h4.5V2Z"/></svg>