<svg viewBox="0 0 32 32"><path d="M29.16 25.19h-.69V10.28c0-.41-.34-.75-.75-.75h-3.74c-.41 0-.75.34-.75.75v14.91h-2.77v-10.1c0-.41-.34-.75-.75-.75h-3.74c-.41 0-.75.34-.75.75v3.71c0 .41.34.75.75.75s.75-.34.75-.75v-2.96h2.24v9.35h-.38c-.41 0-.75.34-.75.75s.34.75.75.75h10.57c.41 0 .75-.34.75-.75s-.33-.75-.74-.75zm-4.43 0V11.03h2.24v14.16h-2.24zM8.09 14.08c-.26-.32-.21-.8.12-1.05L13.5 8.8c.24-.19.58-.22.85-.06l2.8 1.63 6.16-6.59-1.39.03h-.02c-.41 0-.74-.33-.75-.73-.01-.41.32-.76.73-.77l3.16-.07h.02c.02 0 .05.01.07.01.07.01.15.02.22.04.08.03.16.08.23.14.16.15.24.37.23.58l.07 3.12c.01.41-.32.76-.73.77h-.02c-.41 0-.74-.33-.75-.73l-.03-1.31-6.52 6.97c-.24.26-.62.31-.93.14l-2.87-1.68-4.88 3.91c-.14.11-.3.16-.47.16a.714.714 0 0 1-.59-.28zm9.83 7.99c0-.96-.78-1.74-1.74-1.74h-3.66l.42-2.5c.01-.04.01-.08.01-.13v-.23c-.02-.44-.19-.86-.52-1.2l-.68-.68a.77.77 0 0 0-.55-.22c-.2 0-.4.09-.54.24l-3.9 4.24a.754.754 0 0 0-.51-.2H2.84a.75.75 0 0 0-.75.75v8.48c0 .41.34.75.75.75h3.42c.2 0 .39-.08.53-.22.02-.02.02-.04.04-.06.41.25.89.41 1.41.41h5.52c.82 0 1.58-.49 1.91-1.25l2.09-4.89c.1-.27.13-.46.14-.75l.02-.8zM3.59 28.12v-6.98h1.92v6.98H3.59zm12.79-5.06-2.08 4.85c-.09.22-.33.36-.6.34H8.25c-.68 0-1.23-.55-1.23-1.23v-4.99c-.01-.15.05-.3.2-.44l4.03-4.38.12.12c.06.06.09.13.09.18l-.56 3.45c-.04.22.02.44.17.61.14.17.35.27.57.27h4.55c.13 0 .24.11.24.24v.74c-.02.14-.03.18-.05.24z"/></svg>