<svg viewBox="0 0 20 20"><path d="M19.11 5.32c.17-.31.17-.69-.01-.99s-.51-.49-.86-.49h-1.91v-2.8c0-.55-.45-1-1-1H4.67c-.55 0-1 .45-1 1v2.8H1.76c-.35 0-.68.19-.86.49s-.18.68-.01.99l.98 1.76.05 6.17c-.45.1-.79.48-.79.96s.35.87.81.96l.03 3.81c0 .55.45.99 1 .99h4.57c.55 0 1-.45 1-1v-7.04c0-.69.66-1.25 1.47-1.25.4 0 .79.14 1.06.39.18.17.4.45.4.86v7.04c0 .55.45 1 1 1h4.67c.55 0 1-.45 1-1v-4.01c.24-.18.41-.46.41-.79s-.17-.6-.41-.79V7.06l.97-1.74zM5.67 2.03h8.66v1.8H5.67v-1.8zM3.96 17.97l-.02-2.76h2.6v2.76H3.96zM10 8.68c-1.91 0-3.47 1.46-3.47 3.25v1.28H3.92L3.86 6.8c0-.02-.01-.03-.01-.05 0-.07-.02-.13-.04-.19a.697.697 0 0 0-.06-.19c0-.01 0-.03-.01-.04l-.28-.5h13.08l-.28.5c-.01.02-.01.04-.02.06-.02.04-.03.09-.04.14-.03.08-.05.17-.05.25 0 .01-.01.02-.01.03v6.36h-2.67v-1.24c0-.88-.37-1.7-1.05-2.34A3.67 3.67 0 0 0 10 8.68zm3.47 9.29v-2.8h2.67v2.8h-2.67z"/></svg>