<svg viewBox="0 0 20 20"><path d="M7.598.5a2.144 2.144 0 0 1 2.613-.108l.144.111 6.866 5.834c.417.36.675.861.722 1.396l.008.18v9.953c0 1.082-.838 1.973-1.928 2.084l-.157.01-3.282.04a2.105 2.105 0 0 1-2.137-1.935l-.006-.15v-3.95a.092.092 0 0 0-.06-.087l-.04-.008H7.63a.098.098 0 0 0-.092.058l-.008.036v3.892c0 1.104-.867 2.004-1.965 2.08l-.152.005H2.127c-1.119 0-2.034-.852-2.112-1.935l-.005-.149L0 7.913c0-.54.215-1.06.59-1.445l.133-.124L7.598.5Zm1.343 1.496-.03.017-6.845 5.814-.03.031-.015.027-.005.027.01 9.944c0 .04.024.073.06.087l.04.007h3.286a.098.098 0 0 0 .093-.057l.008-.037v-3.892c0-1.104.866-2.004 1.965-2.08l.151-.005h2.712c1.119 0 2.034.852 2.112 1.936l.005.15v3.95c0 .037.026.072.06.086l.038.008 3.265-.039a.12.12 0 0 0 .105-.066l.008-.038V7.913a.095.095 0 0 0-.016-.05l-.019-.023-6.856-5.825a.108.108 0 0 0-.067-.024l-.035.005Z"/></svg>