<svg viewBox="0 0 32 32"><path d="M18.4 15.96h-1.23c.13.19.22.41.3.64h.93c.33 0 .6.27.6.6s-.27.6-.6.6h-.8c-.15 1.31-1.21 2.33-2.52 2.4l2.36 2.34c.24.23.24.61 0 .85a.607.607 0 0 1-.85.01l-3.38-3.36a.592.592 0 0 1 0-.85c.12-.12.27-.18.43-.18h1.32c.71 0 1.31-.52 1.45-1.21h-2.77c-.33 0-.6-.27-.6-.6s.27-.6.6-.6h2.52c-.27-.38-.7-.64-1.2-.64h-1.32c-.33 0-.6-.27-.6-.6s.27-.6.6-.6h4.77c.33 0 .6.27.6.6s-.28.6-.61.6zm11.59-.12L17.83 4.4a.755.755 0 0 0-1.06.03c-.28.3-.27.78.03 1.06l10.77 10.14h-1.49a.75.75 0 0 0-.75.75v9.77H8.17c-.41 0-.75.34-.75.75s.34.75.75.75H26.1a.75.75 0 0 0 .75-.75v-9.77h2.63c.31 0 .58-.19.7-.47s.03-.61-.19-.82zm-23.75-.21H4.42l12.1-11.37c.3-.28.32-.76.03-1.06a.746.746 0 0 0-1.06-.03L2.02 15.84c-.22.21-.3.54-.18.82s.39.47.7.47H5.5v9.77c0 .41.34.75.75.75s.75-.34.75-.75V16.38a.77.77 0 0 0-.76-.75z"/></svg>