<svg viewBox="0 0 32 32"><path d="M31.52 12.18c-.09-.25-.3-.6-.84-.85-.87-.41-2.29-.45-3.3-.07l-4.12 1.88-5.1-3.02a.81.81 0 0 0-.71-.06l-1.51.57c-.25.09-.44.31-.51.57s-.01.54.17.74l2.87 3.4-1.21.55-3.21-2.06a.843.843 0 0 0-.74-.08l-.92.35c-.22.08-.39.25-.48.47-.09.22-.08.46.03.67l1.75 3.56.35.65c.49.92 1.42 1.44 2.37 1.44.4 0 .8-.09 1.17-.28l12-5.82c.77-.41 2.41-1.27 1.94-2.61zm-2.71 1.13-11.98 5.81c-.5.25-1.08.05-1.35-.46l-1.43-2.86 2.68 1.72c.24.15.54.17.79.06l2.62-1.19a.84.84 0 0 0 .47-.57.824.824 0 0 0-.18-.72l-2.81-3.33.04-.01 5.13 3.04c.23.14.52.16.77.04L28 12.79c.53-.2 1.3-.16 1.73-.04-.16.12-.44.31-.92.56z"/><path d="M28.23 22.61H9.75V12.57h1.72c.37 0 .7-.25.8-.61l1.5-5.37c.07-.25.02-.52-.14-.72a.824.824 0 0 0-.66-.33h-2.62l.49-1.96a.82.82 0 0 0-.15-.71.84.84 0 0 0-.65-.32h-2.1v-1.1c0-.46-.37-.83-.83-.83s-.83.37-.83.83v1.09h-2.1c-.26 0-.5.12-.65.32a.82.82 0 0 0-.15.71l.49 1.96H1.25c-.26 0-.5.12-.66.33-.15.21-.21.48-.14.73l1.5 5.37c.1.36.43.61.8.61h1.72v18.18c0 .46.37.83.83.83h20.17c.46 0 .83-.37.83-.83v-4.02L28.83 24c.23-.24.29-.59.15-.9a.8.8 0 0 0-.75-.49zM8.98 4.2l-.33 1.34H5.58L5.25 4.2h3.73zM8.1 23.44v6.48H6.13V12.57H8.1v10.87zM5.3 10.91H3.38L2.35 7.2h9.54l-1.04 3.71H5.3zm19.35 19.01H9.75v-2.69h14.89v2.69zm.46-4.35H9.75v-1.3h16.57l-1.21 1.3z"/></svg>