<svg viewBox="0 0 32 32"><path d="M24.04 19.31c-.41 0-.75.34-.75.75v7.31h-4.87v-6.52c0-.41-.34-.75-.75-.75h-6.69c-.41 0-.75.34-.75.75v6.52H5.37V16.9c0-.41-.34-.75-.75-.75H3.14l11.18-9.13.8.65c.32.26.79.21 1.06-.11a.76.76 0 0 0-.11-1.06L14.8 5.46a.74.74 0 0 0-.95 0L.56 16.32c-.25.2-.34.53-.23.83.11.3.39.5.71.5h2.83v10.47c0 .41.34.75.75.75h19.42c.41 0 .75-.34.75-.75v-8.06c0-.41-.34-.75-.75-.75zm-12.31 8.06V21.6h5.19v5.77h-5.19zm19.86-10.02-2.64-3.98a6.508 6.508 0 0 0 1.18-3.7c0-3.61-2.93-6.55-6.54-6.55s-6.54 2.94-6.54 6.55c0 1.43.48 2.78 1.32 3.89l-2.51 3.78c-.15.22-.17.51-.04.75.12.24.36.4.63.41l2.25.11.81 1.9c.11.25.35.43.62.45h.07c.25 0 .49-.12.63-.34l2.89-4.38 2.89 4.38c.14.21.38.34.63.34h.07c.27-.02.51-.2.62-.45l.82-1.9 2.25-.1c.27-.01.51-.17.63-.41.12-.24.11-.53-.04-.75zm-8-12.72c2.78 0 5.04 2.26 5.04 5.05 0 1.17-.41 2.31-1.17 3.21a4.923 4.923 0 0 1-3.46 1.8c-.14.01-.27.02-.41.02-.04 0-.09 0-.2-.01a4.958 4.958 0 0 1-3.54-1.67c-.83-.91-1.29-2.1-1.29-3.35a5.032 5.032 0 0 1 5.03-5.05zm-3.24 14.02-.45-1.05a.746.746 0 0 0-.65-.45l-1.4-.07 1.57-2.38.12.09.36.27a7.784 7.784 0 0 0 .69.41c.04.02.07.04.11.06.44.22.91.39 1.38.5l-1.73 2.62zm7.86-1.5c-.29.01-.54.19-.65.45l-.45 1.05-1.77-2.68c.01 0 .03-.01.04-.01.22-.06.45-.14.66-.22.02-.01.04-.02.05-.03.2-.08.39-.17.58-.27.07-.04.13-.08.19-.11.14-.08.27-.16.41-.25l.21-.15c.12-.09.24-.18.35-.28.03-.03.07-.05.1-.08l1.67 2.52-1.39.06zm-7.38-4.7c-.05.28.07.57.3.73.23.17.54.19.79.06l1.67-.88 1.67.88c.11.06.23.09.35.09a.747.747 0 0 0 .74-.87l-.32-1.86 1.35-1.32A.749.749 0 0 0 26.96 8l-1.86-.28-.84-1.7a.751.751 0 0 0-.67-.42.73.73 0 0 0-.67.42l-.84 1.7-1.87.27c-.28.04-.52.24-.61.51-.09.27-.01.57.19.77l1.35 1.32-.31 1.86zm1.86-3.31c.25-.04.46-.19.57-.41l.34-.69.34.69c.11.22.32.38.57.41l.76.11-.55.53c-.18.17-.26.42-.22.66l.13.76-.68-.36a.73.73 0 0 0-.7 0l-.68.36.13-.75a.742.742 0 0 0-.22-.66l-.55-.53.76-.12z"/></svg>