<svg viewBox="0 0 20 20"><path d="M0 2.66c0-.643.225-1.174.676-1.593C1.126.65 1.712.44 2.432.44c.708 0 1.281.206 1.719.618.45.424.675.978.675 1.66 0 .618-.219 1.133-.656 1.544-.45.425-1.043.637-1.776.637h-.02c-.707 0-1.28-.212-1.718-.637C.22 3.838 0 3.304 0 2.66Zm.251 16.892V6.656h4.286v12.896H.25Zm6.66 0h4.286v-7.2c0-.451.051-.799.154-1.043a2.8 2.8 0 0 1 .82-1.11c.368-.303.828-.454 1.381-.454 1.442 0 2.162.972 2.162 2.915v6.892H20v-7.394c0-1.905-.45-3.35-1.351-4.334-.901-.984-2.092-1.477-3.572-1.477-1.66 0-2.953.715-3.88 2.143v.039h-.02l.02-.039V6.656H6.91c.026.412.039 1.693.039 3.842 0 2.15-.013 5.167-.039 9.054Z"/></svg>