<svg viewBox="0 0 20 20"><path d="M18 3.4H6.9c-.6 0-1 .4-1 1v12c0 .7-.6 1.4-1.3 1.4h-.1c-.8 0-1.4-.6-1.4-1.4V2.1h10.1c.6 0 1-.4 1-1s-.4-1-1-1H2c-.6 0-1 .4-1 1v15.3c0 1.9 1.5 3.4 3.4 3.4h10.4c2.2 0 4.1-1.8 4.1-4.1V4.4c.1-.5-.4-1-.9-1zm-1 12.4c0 1.1-.9 2.1-2.1 2.1H7.6c.2-.4.3-.9.3-1.4V5.4H17v10.4zM9.3 8.4c0-.6.4-1 1-1h4.2c.6 0 1 .4 1 1s-.4 1-1 1h-4.2c-.6 0-1-.5-1-1zm0 3.3c0-.6.4-1 1-1h4.2c.6 0 1 .4 1 1s-.4 1-1 1h-4.2c-.6 0-1-.5-1-1zm0 3.3c0-.6.4-1 1-1h2.6c.6 0 1 .4 1 1s-.4 1-1 1h-2.6c-.6 0-1-.5-1-1z"/></svg>