<svg viewBox="0 0 20 20"><path d="M18.99 10.66h-.04V8c0-.55-.45-1-1-1H14.8V1.79c0-.55-.45-1-1-1s-1 .45-1 1v1.95H7.2V1.79c0-.55-.45-1-1-1s-1 .45-1 1V7H2.05c-.55 0-1 .45-1 1v2.66h-.04c-.55 0-1 .45-1 1s.45 1 1 1h.04v5.55c0 .55.45 1 1 1h15.89c.55 0 1-.45 1-1v-5.55h.04c.55 0 1-.45 1-1s-.44-1-.99-1zM14.9 9h2.05v1.66H14.8V9h.1zm-2.1 3.11c-1.04-.82-2.1-1.45-2.15-1.48a1 1 0 0 0-.99-.02c-.06.03-1.31.72-2.46 1.58V9h5.6v3.11zm-5.6 3.74c.01-.71.33-1.37.88-1.82.69-.55 1.52-1.07 2.03-1.38.48.31 1.22.82 1.86 1.36.52.45.82 1.09.83 1.77v1.42H7.2v-1.35zm5.6-10.11V7H7.2V5.74h5.6zM3.05 9H5.2v1.66H3.05V9zm0 3.66H5.2v4.55H3.05v-4.55zm13.9 4.55H14.8v-4.56h2.14v4.56z"/></svg>