<svg viewBox="0 0 20 20"><path d="M19.96 15.22c0-1.5-1.24-2.71-2.96-3.06V9.88c.28.11.53.26.71.44a.996.996 0 1 0 1.44-1.38c-.55-.57-1.3-.96-2.15-1.13v-.57c0-.55-.45-1-1-1s-1 .45-1 1v.57c-1.72.35-2.96 1.56-2.96 3.06s1.24 2.71 2.96 3.06v2.27a2.09 2.09 0 0 1-.71-.44.996.996 0 1 0-1.44 1.38c.54.57 1.3.95 2.15 1.13v.36c0 .55.45 1 1 1s1-.45 1-1v-.36c1.72-.34 2.96-1.55 2.96-3.05zm-5.93-4.35c0-.37.37-.77.96-.99v1.99c-.59-.23-.96-.62-.96-1zM17 16.21v-1.99c.59.22.96.62.96.99s-.37.78-.96 1zM8.13 8.33c2.2 0 3.98-1.79 3.98-3.98S10.32.37 8.13.37 4.15 2.15 4.15 4.35s1.78 3.98 3.98 3.98zm0-5.97c1.09 0 1.98.89 1.98 1.98 0 1.09-.89 1.98-1.98 1.98-1.09 0-1.98-.89-1.98-1.98 0-1.09.88-1.98 1.98-1.98zm3.35 14.92c0 .55-.45 1-1 1H1.04c-.55 0-1-.45-1-1 0-4.27 3.57-7.74 7.97-7.74.82 0 1.63.12 2.41.36.53.16.82.72.66 1.25a.99.99 0 0 1-1.25.66c-.59-.18-1.2-.27-1.82-.27-2.94 0-5.38 2.05-5.88 4.74h8.35c.55 0 1 .44 1 1z"/></svg>