<svg viewBox="0 0 20 20"><path d="M19.93 11.27c-.19-.52-.76-.79-1.28-.61l-1.15.41-.02-.05v-.01l-.63-1.66-.87-2.75c-.01-.05-.03-.11-.04-.16l-.02-.05 1.16-.41c.52-.18.79-.76.61-1.28-.19-.52-.76-.79-1.28-.61l-1.93.68a1.142 1.142 0 0 0-.78.82c-.38-.05-.73-.13-.97-.23l-1.53-.65c-.73-.3-1.54-.33-2.22-.09-.29.08-.55.18-.79.31h-.12l-2.8.17c-.15-.21-.37-.36-.61-.43l-1.72-.59c-.52-.18-1.09.1-1.27.62-.18.53.1 1.1.62 1.28l.78.27L2 10.67l-.11.4-.56-.19a.999.999 0 0 0-1.27.63c-.18.52.1 1.09.63 1.27l1.44.49a1.157 1.157 0 0 0 1.24-.37c.79.86 2.35 1.84 3.08 2.26l.45.24c.67.38 1.36.57 2.04.57.2 0 .39-.02.58-.05 2.31-.39 5.18-1.6 6.33-3.4l.05-.01c.14.43.52.74.97.79h.22c.09-.01.17-.03.25-.05l1.98-.7c.52-.19.79-.76.61-1.28zM9.2 13.95c-.51.09-.99-.11-1.31-.29l-.46-.26c-.92-.52-2.15-1.37-2.62-1.9l-.75-.84.85-3.53 1.39-.08-.23.48c-.53 1.05-.24 2.35.68 3.08 1 .79 2.37.74 3.27-.12.09-.09.17-.2.22-.31.12-.28.22-.36.24-.36.04-.02.23-.01.57.17l2.93 1.71c-.83.96-2.81 1.92-4.78 2.25zm2.83-5.71c-.54-.29-1.05-.43-1.52-.43-.24 0-.46.04-.68.11-.54.19-.98.59-1.3 1.2-.18.09-.4.03-.54-.08a.507.507 0 0 1-.14-.61l.45-.9c.24-.48.67-.83 1.25-.99.29-.1.59-.09.86.02l1.53.65c.65.27 1.51.41 2.26.43l.75 2.34-2.92-1.74z"/></svg>