<svg viewBox="0 0 32 32"><path d="M26.19 6.26c-.01-.02-.02-.03-.02-.04-.07-.13-.15-.25-.25-.36L21.74 1.5c-.14-.14-.3-.25-.47-.34-.01-.01-.02-.01-.03-.02a1.75 1.75 0 0 0-.67-.14H9.31C7.29 1 5.65 2.64 5.65 4.66v22.68c0 2.02 1.64 3.66 3.66 3.66h13.38c2.02 0 3.66-1.64 3.66-3.66V6.96c0-.25-.06-.48-.16-.7zm-2.45-.47h-1.96a.09.09 0 0 1-.09-.09V3.62l2.05 2.17zM22.69 29.5H9.31c-1.19 0-2.16-.97-2.16-2.16V4.66c0-1.19.97-2.16 2.16-2.16l10.88.03V5.7c0 .88.72 1.59 1.59 1.59h3.07v20.05c0 1.19-.97 2.16-2.16 2.16zm-9.88-16.14a1.79 1.79 0 0 0-.6-.35c-.23-.08-.47-.12-.72-.12h-1.47c-.25 0-.44.07-.57.22-.13.15-.2.32-.2.53v3.84c0 .09.02.17.05.25s.08.15.14.21c.06.06.13.11.2.14s.16.05.24.05c.08 0 .16-.02.24-.05s.14-.08.2-.14c.06-.06.1-.13.14-.21s.05-.16.05-.25v-.96h.92c.28 0 .54-.04.78-.12.24-.08.45-.2.62-.35s.31-.34.4-.57c.1-.23.15-.49.15-.77s-.05-.54-.15-.77c-.11-.24-.25-.43-.42-.58zm-.87 1.83c-.11.12-.3.18-.56.18h-.88v-1.36h.9c.25 0 .43.06.54.19.11.12.17.29.17.5s-.05.37-.17.49zm6.32-1.02c-.11-.27-.26-.5-.47-.69-.21-.19-.46-.34-.76-.44-.3-.11-.66-.16-1.07-.16h-1.07c-.28 0-.5.08-.64.24a.86.86 0 0 0-.22.59v3.54c0 .24.07.43.22.6.15.16.36.24.64.24h1.07c.43 0 .79-.06 1.09-.17s.56-.27.76-.47c.2-.2.36-.44.46-.71.11-.28.17-.58.2-.9.01-.13.01-.26.01-.39s-.01-.27-.02-.4c-.02-.32-.09-.61-.2-.88zm-1.04 1.6c-.02.34-.13.6-.32.8-.19.2-.49.29-.91.29h-.71v-2.77h.71c.43 0 .74.1.93.31s.29.49.3.86c0 .08.01.16.01.25 0 .08 0 .17-.01.26zm5.64-2.73c.12.11.17.24.17.41 0 .08-.02.15-.05.23s-.08.13-.13.18c-.06.05-.12.09-.19.13s-.15.05-.22.05h-1.9v1.04h1.72c.17 0 .31.05.42.17.11.11.17.25.17.41 0 .08-.02.15-.05.22a.594.594 0 0 1-.32.3c-.07.03-.15.05-.22.05h-1.72v1.25c0 .18-.06.33-.18.46s-.27.18-.45.18c-.08 0-.16-.02-.24-.05s-.14-.08-.2-.14c-.06-.06-.1-.13-.14-.21s-.05-.16-.05-.24v-3.77c0-.24.07-.43.22-.59.15-.16.36-.24.64-.24h2.29c.17 0 .31.05.43.16z"/></svg>