<svg xmlns="http://www.w3.org/2000/svg" id="Layer_1" data-name="Layer 1" viewBox="0 0 32 32"><defs><style>.cls-1{stroke-width:0}</style></defs><path d="M6.93 30.53c-.46-.11-.91-.24-1.29-.53-.76-.59-1.06-1.38-1.06-2.33V4.35c0-.66.13-1.28.54-1.81.57-.75 1.34-1.06 2.27-1.06h14.13c.13 0 .3.07.38.17 2.11 2.3 4.21 4.61 6.3 6.93.09.1.15.26.15.4 0 6.25 0 12.5.01 18.75 0 1.45-.96 2.6-2.31 2.78-.02 0-.03.02-.05.03H6.93ZM19.11 2.79H7.42c-1 0-1.52.52-1.52 1.52v23.38c0 .9.56 1.53 1.52 1.53 6.03-.01 12.07 0 18.1 0 .99 0 1.51-.52 1.51-1.5V10.73H20.68c-1.08 0-1.58-.5-1.58-1.58V2.79Zm7.91 6.59c-.12-.13-.2-.23-.28-.32-1.79-1.99-3.59-3.97-5.36-5.97-.28-.32-.57-.33-.93-.27v6.57h6.57Z" class="cls-1"/><path d="M10.22 23.98v1.47c0 .12-.04.22-.12.3-.08.09-.18.13-.3.13s-.21-.04-.29-.13-.12-.19-.12-.3v-4.54c0-.17.05-.31.16-.43.1-.12.26-.18.46-.18h1.59c.25 0 .49.04.71.13s.42.21.59.36c.17.16.3.35.4.58.1.23.15.48.15.77s-.05.55-.14.78c-.1.23-.23.42-.4.58-.17.16-.38.28-.61.36s-.49.13-.77.13h-1.3Zm1.28-.84c.38 0 .66-.09.83-.28.17-.19.25-.43.25-.72s-.08-.54-.25-.73c-.17-.18-.44-.28-.8-.28h-1.31v2h1.28ZM15.12 25.85c-.21 0-.37-.06-.48-.19a.67.67 0 0 1-.17-.46v-4.26c0-.18.05-.34.16-.46s.27-.18.48-.18h1.27c.41 0 .77.06 1.07.17.31.12.57.28.78.48s.37.45.48.74c.11.29.18.6.2.93.01.14.02.29.02.44 0 .15 0 .29-.01.42-.02.34-.09.66-.2.94a2.076 2.076 0 0 1-1.26 1.24c-.31.12-.67.18-1.08.18h-1.27Zm2.96-2.39c.01-.12.02-.25.02-.38s0-.25-.01-.36c-.03-.48-.17-.87-.44-1.15-.27-.28-.68-.43-1.25-.43h-1.07v3.87h1.07c.28 0 .52-.04.73-.11.21-.07.38-.18.51-.32s.24-.3.31-.49.11-.4.13-.64ZM20.14 20.94c0-.18.06-.33.17-.45.11-.12.27-.19.49-.19h2.61c.12 0 .22.04.31.11s.13.17.13.3-.04.22-.13.3c-.09.08-.19.12-.31.12H21v1.64h2.29a.407.407 0 0 1 .42.42c0 .11-.04.21-.13.29a.4.4 0 0 1-.29.12H21v1.84c0 .12-.04.22-.13.31s-.19.13-.31.13-.21-.04-.3-.13a.441.441 0 0 1-.12-.3v-4.5Z" class="cls-1"/><rect width="1.32" height="9.72" x="13.47" y="9.76" class="cls-1" rx=".42" ry=".42" transform="rotate(90 14.13 14.62)"/><rect width="1.32" height="9.72" x="13.47" y="12.36" class="cls-1" rx=".42" ry=".42" transform="rotate(90 14.125 17.215)"/><rect width="1.32" height="9.72" x="13.47" y="7.16" class="cls-1" rx=".42" ry=".42" transform="rotate(90 14.125 12.025)"/></svg>