<svg viewBox="0 0 32 32"><path d="m13.63 14.27 2.54 1.09c.54.23 1 .65 1.28 1.16l.33.61c.2.36.06.82-.3 1.02-.11.06-.24.09-.36.09-.27 0-.52-.14-.66-.39l-.33-.61c-.12-.22-.32-.4-.55-.5l-2.54-1.09a.737.737 0 0 1-.39-.98c.16-.38.6-.56.98-.4zM5.58 8.2c0-1.37.68-2.97 1.69-3.98.23-.22.48-.43.75-.62.34-.23.81-.14 1.04.2.24.34.15.81-.19 1.04-.19.13-.37.28-.54.44-.58.58-1.03 1.49-1.19 2.32 2.44.44 4.9.44 7.34 0-.21-1.31-1.08-2.49-2.35-3.16.07.34.11.69.1 1.08-.01.41-.34.73-.75.73h-.02a.75.75 0 0 1-.73-.77c.02-1.17-.42-1.87-1.47-2.36-.38-.17-.54-.61-.37-.99s.62-.54.99-.37c.56.26 1.02.58 1.38.96.12-.05.25-.09.38-.08.22.02.55.14 1 .35 2.06 1 3.39 3.04 3.39 5.2 0 .35-.25.66-.59.73-.3.08-.59.13-.88.18v1.15c0 2.06-1.68 3.74-3.75 3.74s-3.75-1.68-3.75-3.74V9.1c-.3-.05-.59-.1-.88-.16a.759.759 0 0 1-.6-.74zm5.23 1.22c-.75 0-1.5-.04-2.25-.12v.94c0 1.24 1.01 2.24 2.25 2.24s2.25-1.01 2.25-2.24v-.93c-.75.07-1.5.11-2.25.11zm9.87 17.62-.27 1.25a2.571 2.571 0 0 1-3.01 1.96c-.23-.05-.44-.13-.65-.24h-6.29c-.24 0-.46-.11-.6-.3s-.19-.43-.12-.66l.36-1.24-5.67.43c-.08.01-.16.01-.24.01-.73 0-1.42-.3-1.93-.85a2.63 2.63 0 0 1-.67-2.24l1.08-7.53c.16-.97.83-1.76 1.74-2.08l4.15-1.03c.4-.1.81.14.91.55.1.4-.14.81-.55.91l-4.08 1.01c-.33.12-.62.46-.69.87L3.07 25.4a1.15 1.15 0 0 0 1.24 1.35l6.24-.47.77-2.67-3.61.41c-.04 0-.09.01-.13.01a1.18 1.18 0 0 1-1.16-1.34l.29-2.1c.06-.41.43-.7.85-.64.41.06.7.43.64.85l-.23 1.69 3.58-.4-1.56-1.35c-.31-.27-.35-.75-.08-1.06s.75-.35 1.06-.08l1.22 1.06.2-.7a.75.75 0 0 1 .72-.54h6.9c.24 0 .46.11.6.3s.19.43.12.66l-1.16 4.01c.85.53 1.34 1.58 1.11 2.65zm-5.2 1.47c0-.02 0-.03-.01-.05a2.54 2.54 0 0 1-.1-.55v-.09c0-.2.01-.4.05-.6l.27-1.24c.04-.16.09-.31.15-.46.01-.03.03-.07.05-.1.05-.11.12-.22.19-.33.02-.02.03-.05.05-.07.08-.11.17-.22.27-.31l.03-.03c.44-.42 1.03-.69 1.67-.72l.89-3.07h-5.33l-2.2 7.62h4.02zm2.98-3.02c-.01 0-.02-.01-.04-.01h-.01a1.03 1.03 0 0 0-.35.01c-.04.01-.08.01-.12.02-.1.03-.19.07-.28.12a.21.21 0 0 0-.06.04c-.09.06-.16.14-.23.22-.01.02-.03.03-.05.05-.07.11-.13.23-.16.36l-.27 1.24c-.1.43.08.86.45 1.1 0 0 .01 0 .01.01.09.07.21.12.34.14.58.12 1.12-.24 1.25-.81l.27-1.25c.12-.55-.21-1.1-.75-1.24zM30.44 5.57v5.75c0 .96-.78 1.75-1.75 1.75h-4.72l-2.52 1.85a.731.731 0 0 1-.76.08.746.746 0 0 1-.42-.65l-.05-1.28h-.09c-.96 0-1.75-.78-1.75-1.75V5.57c0-.96.78-1.75 1.75-1.75h8.58c.95.01 1.73.79 1.73 1.75zm-1.5 0c0-.14-.11-.25-.25-.25h-8.58c-.14 0-.25.11-.25.25v5.75c0 .14.11.25.25.25h.81c.4 0 .73.32.75.72l.03.59 1.58-1.17c.13-.09.28-.15.44-.15h4.97c.14 0 .25-.11.25-.25V5.57zm-3.13 1.19L23.9 8.35l-.43-.47a.746.746 0 0 0-1.06-.05c-.31.28-.33.75-.05 1.06l.91 1.01c.15.16.35.25.56.25.17 0 .34-.06.48-.17l2.46-2.05c.32-.27.36-.74.09-1.06a.723.723 0 0 0-1.05-.11z"/></svg>