<svg viewBox="0 0 32 32"><path d="M27.7 9.9H4.3c-1.8 0-3.27 1.46-3.27 3.27v8.21c0 1.8 1.46 3.27 3.27 3.27h2.56v4.12c0 .86.71 1.56 1.57 1.56h15.12c.87 0 1.57-.7 1.57-1.56v-4.12h2.56c1.8 0 3.27-1.46 3.27-3.27v-8.21c.01-1.8-1.45-3.27-3.25-3.27zM8.36 28.76l.07-9.49 15.2.06-.07 9.49-15.2-.06zm21.1-7.38c0 .97-.79 1.77-1.77 1.77h-2.56v-3.81c0-.86-.71-1.56-1.57-1.56H8.44c-.87 0-1.57.7-1.57 1.56v3.81H4.3c-.99 0-1.77-.78-1.77-1.77v-8.21c0-.97.79-1.77 1.77-1.77h23.4c.97 0 1.77.79 1.77 1.77v8.21zM6.87 7.95V2.43c0-.41.34-.75.75-.75h16.76c.41 0 .75.34.75.75v5.53c0 .41-.34.75-.75.75s-.75-.34-.75-.75V3.18H8.37v4.78c0 .41-.34.75-.75.75a.758.758 0 0 1-.75-.76zm12.86 14.83c0 .41-.34.75-.75.75h-6.44c-.41 0-.75-.34-.75-.75s.34-.75.75-.75h6.44c.41 0 .75.33.75.75zm0 3.07c0 .41-.34.75-.75.75h-6.44c-.41 0-.75-.34-.75-.75s.34-.75.75-.75h6.44c.41 0 .75.33.75.75zm6.13-13.73c-1.23 0-2.23 1-2.23 2.23s1 2.23 2.23 2.23 2.23-1 2.23-2.23-1-2.23-2.23-2.23zm0 2.96c-.4 0-.73-.33-.73-.73s.33-.73.73-.73.73.33.73.73-.33.73-.73.73z"/></svg>