<svg viewBox="0 0 20 20"><path d="M16.95.16H3.04C1.49.16.22 1.42.22 2.98v13.91c0 1.55 1.26 2.82 2.82 2.82h13.91c1.55 0 2.82-1.26 2.82-2.82V2.98c0-1.56-1.27-2.82-2.82-2.82zm-13.91 2h13.91c.45 0 .82.37.82.82v2.21L2.22 3.73v-.75c0-.45.37-.82.82-.82zm-.82 13.69V5.74l6.09.57-6.09 9.54zm14.73 1.86H3.4l7.14-11.19 7.22.68v9.7c.01.44-.36.81-.81.81zM13.1 7.46c-2.04 0-3.71 1.66-3.71 3.71 0 2.21 2.65 5.33 2.95 5.68.19.22.46.34.74.34h.01a1 1 0 0 0 .74-.33c.3-.33 2.97-3.31 2.97-5.7.01-2.04-1.66-3.7-3.7-3.7zm.01 7.14c-.86-1.17-1.72-2.62-1.72-3.44 0-.94.77-1.71 1.71-1.71s1.71.77 1.71 1.71c0 .93-.87 2.36-1.7 3.44zm1.03-3.52c0 .57-.47 1.04-1.04 1.04-.57 0-1.04-.47-1.04-1.04 0-.57.47-1.04 1.04-1.04.57.01 1.04.47 1.04 1.04z"/></svg>