<svg viewBox="0 0 32 32"><rect/><path d="M28.89 29.45h-.95V15.91c0-.41-.34-.75-.75-.75h-1v-2.21c0-.41-.34-.75-.75-.75h-4.29V7.04c0-.32-.21-.61-.51-.71L4.88 1.09a.726.726 0 0 0-.67.1.74.74 0 0 0-.31.61v27.65h-.79c-.41 0-.75.34-.75.75s.34.75.75.75h25.77c.41 0 .75-.34.75-.75s-.33-.75-.74-.75zM24.68 13.7v1.46h-3.54V13.7h3.54zM5.4 2.84l14.25 4.74v5.32c0 .02-.01.03-.01.05v16.5H5.4V2.84zm15.74 26.61V16.66h5.29v12.79h-5.29zM10.23 10.64c0 .39-.31.7-.7.7H8.08v1.44c0 .39-.31.7-.7.7s-.7-.31-.7-.7v-2.14c0-.39.31-.7.7-.7h2.14c.39 0 .71.31.71.7zm4.06 0c0 .39-.31.7-.7.7h-1.44v1.44c0 .39-.31.7-.7.7s-.7-.31-.7-.7v-2.14c0-.39.31-.7.7-.7h2.14c.39 0 .7.31.7.7zm.52 2.14v-2.14c0-.39.31-.7.7-.7h2.14c.39 0 .7.31.7.7s-.31.7-.7.7h-1.44v1.44c0 .39-.31.7-.7.7s-.7-.31-.7-.7zm-4.58 3.69c0 .39-.31.7-.7.7H8.08v1.44c0 .39-.31.7-.7.7s-.7-.31-.7-.7v-2.14c0-.39.31-.7.7-.7h2.14c.39 0 .71.31.71.7zm4.06 0c0 .39-.31.7-.7.7h-1.44v1.44c0 .39-.31.7-.7.7s-.7-.31-.7-.7v-2.14c0-.39.31-.7.7-.7h2.14c.39 0 .7.31.7.7zm4.07 0c0 .39-.31.7-.7.7h-1.44v1.44c0 .39-.31.7-.7.7s-.7-.31-.7-.7v-2.14c0-.39.31-.7.7-.7h2.14c.38 0 .7.31.7.7zm-8.13 5.82c0 .39-.31.7-.7.7H8.08v1.44c0 .39-.31.7-.7.7s-.7-.31-.7-.7v-2.14c0-.39.31-.7.7-.7h2.14c.39 0 .71.31.71.7zm4.06 0c0 .39-.31.7-.7.7h-1.44v1.44c0 .39-.31.7-.7.7s-.7-.31-.7-.7v-2.14c0-.39.31-.7.7-.7h2.14c.39 0 .7.31.7.7zm4.07 0c0 .39-.31.7-.7.7h-1.44v1.44c0 .39-.31.7-.7.7s-.7-.31-.7-.7v-2.14c0-.39.31-.7.7-.7h2.14c.38 0 .7.31.7.7z"/></svg>