<svg viewBox="0 0 20 20"><path d="M19.55 16.35V6.73c0-.34-.17-.66-.46-.84-1.05-.68-2.12-1.02-3.2-1.04V3.82c.49-.07.87-.47.87-.97 0-.55-.45-1-1-1H4.23c-.55 0-1 .45-1 1 0 .51.38.91.87.97v1.03c-1.08.03-2.15.37-3.2 1.04-.29.18-.46.5-.46.84v9.63c-.26.18-.44.47-.44.81 0 .55.45 1 1 1h17.99c.55 0 1-.45 1-1a.99.99 0 0 0-.44-.82zm-2-7.48a5.88 5.88 0 0 0-3.57 0v-.96c0-.02.01-.04.01-.06s-.01-.04-.01-.06V7.3c1.21-.63 2.36-.63 3.57 0v1.57zM10 11c-.55 0-1 .45-1 1v4.16h-.98V8.85h3.97v7.31H11V12c0-.55-.45-1-1-1zm2.44-5.11c-.29.18-.46.5-.46.84v.12H8.02v-.12c0-.34-.17-.66-.46-.84-.48-.31-.97-.54-1.46-.72V3.84h7.8v1.33c-.49.18-.98.41-1.46.72zM6.02 7.3v1.58a5.88 5.88 0 0 0-3.57 0V7.3c1.2-.63 2.36-.63 3.57 0zm-3.57 8.86v-5.14c1.2-.55 2.37-.55 3.57 0v5.14H2.45zm11.53 0v-5.14c1.2-.55 2.37-.55 3.57 0v5.14h-3.57z"/></svg>