<svg viewBox="0 0 93 69"><path d="M8.086 63.052C2.825 57.532 0 51.342 0 41.308 0 23.651 12.55 7.825 30.8 0l4.562 6.952C18.327 16.053 14.997 27.863 13.669 35.31c2.743-1.403 6.334-1.892 9.853-1.57C32.737 34.584 40 42.056 40 51.344 40 61.095 31.996 69 22.122 69c-5.48 0-10.721-2.472-14.036-5.948Zm53 0C55.825 57.532 53 51.342 53 41.308 53 23.651 65.55 7.825 83.8 0l4.562 6.952C71.327 16.053 67.997 27.863 66.669 35.31c2.743-1.403 6.334-1.892 9.853-1.57C85.737 34.584 93 42.056 93 51.344 93 61.095 84.996 69 75.122 69c-5.48 0-10.721-2.472-14.036-5.948Z"/></svg>