<svg viewBox="0 0 32 32"><path d="M11.36 20.61v1.49c0 1.14.93 2.07 2.07 2.07h5.2c1.14 0 2.07-.93 2.07-2.07v-1.49c0-1.14-.93-2.07-2.07-2.07h-5.2c-1.14-.01-2.07.92-2.07 2.07zm1.5 0c0-.32.26-.57.57-.57h5.2c.32 0 .57.26.57.57v1.49c0 .32-.26.57-.57.57h-5.2a.57.57 0 0 1-.57-.57v-1.49zm-6.6-4.29H4.45l12.1-11.37c.3-.28.32-.76.03-1.06a.746.746 0 0 0-1.06-.03L2.04 16.52c-.22.21-.3.54-.18.82.11.29.39.47.7.47h2.96v9.77c0 .41.34.75.75.75s.75-.34.75-.75V17.07a.77.77 0 0 0-.76-.75z"/><path d="M30.01 16.52 17.86 5.09a.755.755 0 0 0-1.06.03c-.28.3-.27.78.03 1.06L27.6 16.32h-1.49a.75.75 0 0 0-.75.75v9.77H8.19c-.41 0-.75.34-.75.75s.34.75.75.75h17.93a.75.75 0 0 0 .75-.75v-9.77h2.63c.31 0 .58-.19.7-.47a.8.8 0 0 0-.19-.83z"/></svg>