<svg xmlns="http://www.w3.org/2000/svg" viewBox="262.34 257.61 235.1 234.52"><path d="M364.16 447.04c48.391 0 87.613-39.227 87.613-87.613s-39.223-87.613-87.613-87.613c-48.387 0-87.609 39.227-87.609 87.613s39.223 87.613 87.609 87.613zm0 14.207c56.234 0 101.82-45.586 101.82-101.82s-45.586-101.82-101.82-101.82c-56.23 0-101.82 45.586-101.82 101.82s45.586 101.82 101.82 101.82z"/><path d="M428.38 423.07a7.106 7.106 0 0 1 10.047 0L495.353 480a7.1 7.1 0 0 1 0 10.047 7.101 7.101 0 0 1-10.043 0l-56.93-56.93a7.106 7.106 0 0 1 0-10.047z"/></svg>