<svg viewBox="0 0 20 20"><path d="m7.978 0 .164.005.353.023a7.811 7.811 0 0 1 7.056 6.707l.03.246c.045.372.054.76.03 1.274-.03.408-.088.839-.172 1.257a7.728 7.728 0 0 1-1.2 2.735l-.198.274-.039.008-.021.067 5.74 5.741.084.096a.976.976 0 0 1 .112.98l-.062.117-.073.103-.083.089-.091.08a.968.968 0 0 1-.592.198.966.966 0 0 1-.488-.13l-.11-.074-.097-.087-5.66-5.7-.063-.028-.075.06-.255.187a7.727 7.727 0 0 1-3.495 1.342l-.316.032-.322.02-.322.007-.331-.005-.342-.022C2.943 15.247-.216 11.615.012 7.39.232 3.42 3.385.262 7.315.016L7.56.004 7.978 0Zm-.17 1.955-.217.004a5.852 5.852 0 0 0-5.625 5.536 5.844 5.844 0 0 0 4.988 6.115l.272.033.348.026.25.005.234-.005c2.631-.107 4.913-2.011 5.476-4.58.06-.3.102-.625.123-.955a5.08 5.08 0 0 0-.019-.942 5.826 5.826 0 0 0-5.036-5.183l-.238-.027-.233-.018-.157-.008h-.166Z"/></svg>