<svg viewBox="0 0 20 20"><path d="M7.417 6.269a.977.977 0 0 1 .113 1.95l-.113.006H4.444a.085.085 0 0 0-.081.053l-.007.035v9.643c0 .038.02.069.053.081l.035.007h11.09c.039 0 .069-.02.082-.053l.006-.035V8.313c0-.026-.01-.046-.048-.088H12.56a.983.983 0 0 1-.978-.978c0-.498.381-.914.865-.971l.113-.007h2.973c.546 0 1.057.212 1.445.6.344.344.55.787.592 1.264l.007.18v9.643a2.046 2.046 0 0 1-1.897 2.039l-.147.005H4.444a2.046 2.046 0 0 1-2.039-1.898l-.005-.146V8.313c0-1.077.837-1.964 1.898-2.039l.146-.005h2.973ZM9.99 0c.133 0 .264.027.383.08.08.035.152.077.216.126l.092.08 3.032 3.033a.982.982 0 0 1 0 1.382.97.97 0 0 1-.691.287.968.968 0 0 1-.593-.2L12.33 4.7l-1.363-1.363v9.053c0 .46-.324.85-.755.952l-.11.02-.113.006a.984.984 0 0 1-.971-.865l-.007-.113V3.335l-1.36 1.353a.96.96 0 0 1-1.19.155l-.101-.069-.094-.083a.983.983 0 0 1-.08-1.29l.08-.092L9.298.277c.088-.087.189-.154.33-.216A1.17 1.17 0 0 1 9.99 0Z"/></svg>