<svg viewBox="0 0 32 32"><path d="M28.81 27.95h-.8V11.07c0-.46-.37-.83-.83-.83h-4.23c-.46 0-.83.37-.83.83v16.88h-3.17V16.51c0-.46-.37-.83-.83-.83h-4.23c-.46 0-.83.37-.83.83v11.45H9.88v-6.75c0-.46-.37-.83-.83-.83H4.82c-.46 0-.83.37-.83.83v6.75h-.8c-.46 0-.83.37-.83.83s.37.83.83.83H28.8c.46 0 .83-.37.83-.83s-.37-.84-.82-.84zm-23.16 0v-5.92h2.58v5.92H5.65zm9.06 0V17.34h2.58v10.62h-2.58zm9.06 0V11.9h2.58v16.05h-2.58zM4.99 15.37a.83.83 0 0 1 .13-1.17l5.98-4.78c.27-.21.64-.24.94-.07l3.18 1.85 7.01-7.5-1.62.04h-.02a.83.83 0 0 1-.02-1.66L24.15 2h.01c.21-.01.42.07.59.22.18.17.26.4.25.63l.08 3.53c.01.46-.35.84-.81.85h-.02a.83.83 0 0 1-.83-.81l-.04-1.52-7.41 7.92c-.26.28-.69.34-1.02.15l-3.26-1.9-5.53 4.43c-.15.12-.33.18-.52.18a.86.86 0 0 1-.65-.31z"/></svg>