<svg viewBox="0 0 20 20"><path d="M8.61 4.86a.84.84 0 0 1 .11-.71c.09-.14.21-.27.36-.4.15-.14.32-.25.51-.35.19-.1.41-.18.65-.24.24-.06.5-.09.79-.09.4 0 .75.05 1.05.16s.56.26.76.45c.2.19.36.41.46.66.1.25.15.52.15.81 0 .16-.02.32-.05.49-.03.16-.11.34-.22.53s-.28.39-.5.6-.52.45-.9.71c-.06.04-.14.09-.26.17s-.24.15-.36.24c-.12.08-.23.17-.33.25-.1.08-.16.15-.18.21h2.16a.83.83 0 0 1 .58.23c.07.07.13.15.17.25s.06.2.06.31c0 .23-.08.42-.24.58s-.35.23-.58.23H9.57c-.28 0-.52-.08-.7-.25-.17-.18-.26-.42-.26-.73 0-.45.14-.86.41-1.23.26-.38.66-.74 1.18-1.09.32-.21.59-.39.8-.54.21-.15.37-.27.49-.38s.2-.2.25-.28c.05-.08.07-.17.07-.27 0-.06-.01-.12-.03-.19s-.06-.13-.12-.18-.13-.1-.23-.14c-.1-.04-.23-.06-.38-.06-.25 0-.44.04-.59.12-.15.08-.28.18-.39.3-.08.09-.14.15-.2.21-.06.05-.14.1-.23.13-.11.03-.22.04-.32.03s-.21-.04-.3-.09a.731.731 0 0 1-.26-.19.614.614 0 0 1-.15-.26zm11.37 2.86c0 .1-.02.2-.07.3s-.1.18-.17.26-.16.13-.26.18c-.1.04-.2.07-.3.07h-.38v.62c0 .23-.08.42-.24.58s-.35.24-.57.24a.77.77 0 0 1-.58-.24.776.776 0 0 1-.23-.58v-.62h-1.96c-.21 0-.38-.04-.53-.11-.14-.07-.26-.17-.34-.29s-.14-.25-.16-.41c-.02-.15-.01-.31.02-.47.02-.07.05-.15.09-.23.04-.08.11-.18.2-.3l2.3-3.14c.13-.17.27-.3.44-.39.16-.09.33-.14.52-.14.17 0 .32.03.45.09s.24.14.32.24c.09.1.15.22.2.35s.07.27.07.42v2.77h.38c.23 0 .42.08.57.23s.23.34.23.57zm-2.8-2.39-1.16 1.65h1.16V5.33zm.82 8.9c.92.87.96 2.33.08 3.25l-1.58 1.67c-.53.56-1.36.75-2.22.75-1.07 0-2.17-.29-2.79-.47-2.33-.72-4.65-2.1-6.54-3.89C3.06 13.75 1.56 11.49.72 9.2c-.4-1.09-1.2-3.76.01-5.02L2.31 2.5c.88-.92 2.34-.96 3.26-.08L7.34 4.1c1.02.98 1.16 2.22.33 3.09L6.7 8.21c.57 1.16 1.36 2.21 2.32 3.1.95.93 2.04 1.66 3.24 2.18l.97-1.02c.84-.88 2.02-.85 3.01.08L18 14.23zm-1.37 1.45L14.86 14c-.08-.07-.14-.12-.19-.15l-1.01 1.06c-.54.57-1.36.75-2.09.46-1.48-.63-2.79-1.5-3.92-2.61a12.752 12.752 0 0 1-2.79-3.75c-.34-.74-.2-1.57.34-2.14l1-1.06c0-.01-.09-.11-.25-.27L4.19 3.87a.302.302 0 0 0-.43.01L2.19 5.53c-.49.74.48 5.07 4.14 8.55 3.67 3.48 8.04 4.21 8.73 3.68l1.57-1.65c.12-.12.12-.31 0-.43z"/></svg>