<svg viewBox="0 0 18 18"><path fill="#FFF" d="M9 0c1.838 0 3.325 2.03 4.04 4.96C15.97 5.675 18 7.161 18 9c0 2.602-4.067 4.5-9 4.5-.978 0-1.922-.075-2.807-.215.626 2.169 1.692 3.59 2.807 3.59.788 0 1.61-.74 2.261-2.12a.563.563 0 1 1 1.017.48C11.462 16.965 10.314 18 9 18c-1.838 0-3.325-2.03-4.04-4.96C2.03 12.325 0 10.839 0 9c0-1.313 1.034-2.46 2.765-3.278a.563.563 0 1 1 .48 1.017C1.865 7.39 1.125 8.212 1.125 9c0 1.115 1.42 2.181 3.59 2.807A17.907 17.907 0 0 1 4.5 9c0-4.933 1.898-9 4.5-9Zm0 1.125C7.253 1.125 5.625 4.614 5.625 9c0 1.1.102 2.144.283 3.091.947.181 1.991.284 3.092.284 4.386 0 7.875-1.628 7.875-3.375 0-1.115-1.421-2.181-3.59-2.807a18.072 18.072 0 0 1 .173 3.994.562.562 0 1 1-1.123-.07c.013-.208.023-.401.03-.586l.01-.531c0-1.1-.103-2.145-.284-3.091a16.515 16.515 0 0 0-4.208-.245.562.562 0 0 1-.07-1.122 18.035 18.035 0 0 1 3.994.173C11.18 2.545 10.115 1.124 9 1.124ZM9 6.75a2.25 2.25 0 1 1 0 4.5 2.25 2.25 0 0 1 0-4.5Zm0 1.125a1.125 1.125 0 1 0 0 2.25 1.125 1.125 0 0 0 0-2.25Z"/></svg>