<svg viewBox="0 0 33 32"><g fill="#333"><path d="M9.97 23.11c-1.35 0-2.45 1.1-2.45 2.45s1.1 2.45 2.45 2.45 2.45-1.1 2.45-2.45a2.454 2.454 0 0 0-2.45-2.45Zm0 3.39c-.52 0-.95-.43-.95-.95s.43-.95.95-.95.95.43.95.95c-.01.53-.43.95-.95.95Zm6.41-3.39c-1.35 0-2.45 1.1-2.45 2.45s1.1 2.45 2.45 2.45 2.45-1.1 2.45-2.45c0-1.36-1.1-2.45-2.45-2.45Zm0 3.39c-.52 0-.95-.43-.95-.95s.43-.95.95-.95.95.43.95.95c0 .53-.43.95-.95.95Zm6.41-3.39c-1.35 0-2.45 1.1-2.45 2.45s1.1 2.45 2.45 2.45 2.45-1.1 2.45-2.45c0-1.36-1.1-2.45-2.45-2.45Zm0 3.39c-.52 0-.95-.43-.95-.95s.43-.95.95-.95.95.43.95.95c0 .53-.43.95-.95.95Z"/><path d="M29.39 29.48h-.79v-8.59c0-.41-.34-.75-.75-.75h-2.73v-3.85c0-2.12-1.73-3.85-3.85-3.85h-7.86c-.41 0-.75.34-.75.75v3.61h-2.12v-5.06a.73.73 0 0 0-.06-.3l13.44-6.73c.2.18.43.33.68.42v1.62h-.33c-.41 0-.75.34-.75.75s.34.75.75.75h.34v.57c0 .41.34.75.75.75.39 0 .71.32.71.71 0 .39-.32.71-.71.71-.27 0-.51-.15-.63-.38l-1.33.7a2.21 2.21 0 0 0 4.17-1.02c0-.91-.56-1.69-1.35-2.03h.23c.41 0 .75-.34.75-.75s-.34-.75-.75-.75h-.35v-1.6c.81-.31 1.39-1.08 1.39-2 0-1.17-.96-2.13-2.14-2.13-1.17 0-2.13.96-2.13 2.13 0 .08.02.15.03.22L8.03 10.99H6.16c-.41 0-.75.34-.75.75v8.39h-.5c-.41 0-.75.34-.75.75v8.59h-.55c-.41 0-.75.34-.75.75s.34.75.75.75H29.4c.41 0 .75-.34.75-.75s-.35-.74-.76-.74Zm-5.77-13.19v.52h-6.13v-2.86h3.79a2.33 2.33 0 0 1 2.34 2.34Zm-10.2 2.01c.41 0 .75-.34.75-.75v-3.61h1.82v3.61c0 .41.34.75.75.75h6.88v1.83H8.96v-.24c0-.87.71-1.59 1.59-1.59h2.87ZM25.35 2.52c.35 0 .64.28.64.63s-.29.64-.64.64c-.24 0-.45-.13-.57-.38a.5.5 0 0 1-.06-.26c0-.34.29-.63.63-.63ZM6.91 12.49h2.14v4.71c-.95.53-1.59 1.53-1.59 2.68v.24h-.55v-7.63ZM5.66 29.48v-7.84H27.1v7.84H5.66Z"/></g></svg>