<svg viewBox="0 0 24 24"><path fill="#66D05C" d="M21 24H3c-1.66 0-3-1.34-3-3V3c0-1.66 1.34-3 3-3h18c1.66 0 3 1.34 3 3v18c0 1.66-1.34 3-3 3z"/><path fill="#FFF" d="M16.16 13.58c-.21-.11-1.26-.62-1.46-.7-.2-.07-.34-.11-.48.11-.14.21-.55.7-.68.84-.12.14-.25.16-.46.05-.21-.11-.9-.33-1.72-1.06-.64-.57-1.06-1.27-1.19-1.48-.12-.21-.01-.33.09-.44.1-.1.21-.25.32-.37.11-.12.14-.21.21-.36a.37.37 0 0 0-.02-.37c-.05-.11-.48-1.16-.66-1.59-.16-.41-.34-.36-.47-.36-.12-.01-.27-.01-.41-.01-.14 0-.37.05-.57.27-.2.21-.75.73-.75 1.78s.77 2.07.87 2.21c.11.14 1.51 2.3 3.65 3.23.51.22.91.35 1.22.45.51.16.98.14 1.35.08.41-.06 1.26-.52 1.44-1.02.18-.5.18-.93.12-1.02-.04-.08-.19-.13-.4-.24m-3.9 5.32a7.06 7.06 0 0 1-3.62-.99l-.26-.15-2.69.71.72-2.62-.17-.27a7.107 7.107 0 0 1-1.09-3.78c0-3.92 3.19-7.11 7.11-7.11 1.9 0 3.68.74 5.03 2.08a7.072 7.072 0 0 1 2.08 5.03c0 3.91-3.19 7.1-7.11 7.1m6.05-13.15a8.486 8.486 0 0 0-6.05-2.51c-4.72 0-8.55 3.84-8.56 8.55 0 1.51.39 2.98 1.14 4.28L3.63 20.5l4.54-1.19c1.25.68 2.66 1.04 4.09 1.04 4.71 0 8.55-3.84 8.55-8.55.01-2.29-.88-4.44-2.5-6.05"/></svg>