<svg viewBox="0 0 20 20"><path d="M16.98 3.03A9.796 9.796 0 0 0 10 .13C4.56.13.13 4.55.13 9.99c0 1.85.51 3.65 1.49 5.21l-.78 2.85c-.09.34 0 .71.25.97s.62.35.96.26L5 18.51a9.91 9.91 0 0 0 4.99 1.35c5.44 0 9.86-4.42 9.87-9.86a9.754 9.754 0 0 0-2.88-6.97zM10 17.87c-1.41 0-2.8-.38-4-1.1l-.32-.19a1.03 1.03 0 0 0-.76-.11l-1.68.44.44-1.6c.07-.27.03-.56-.12-.8l-.21-.33c-.79-1.25-1.2-2.7-1.2-4.18 0-4.33 3.53-7.86 7.87-7.86 2.1 0 4.07.82 5.56 2.31a7.839 7.839 0 0 1 2.3 5.56c-.02 4.33-3.54 7.86-7.88 7.86zm5.39-4.07c-.19.54-1.24 1.1-1.65 1.14-.05 0-.1.01-.16.02-.12.01-.24.03-.39.03-.36 0-1.03-.08-2.68-.73-1.64-.65-3.27-2.08-4.59-4.03-.03-.05-.06-.08-.07-.1-.25-.34-1.08-1.54-1.08-2.72 0-1.18.57-1.79.85-2.08l.06-.06c.22-.24.47-.26.54-.26h.08c.16 0 .31 0 .45.01.15 0 .23.01.37.31.14.32.39.92.58 1.4.16.4.25.62.28.68.06.12.05.18.02.24l-.03.09c-.07.13-.11.21-.2.32l-.15.18c-.09.11-.19.22-.26.3-.13.13-.44.44-.17.92.21.36.78 1.27 1.61 2.01.93.83 1.75 1.18 2.14 1.35.07.03.13.06.17.08.16.08.3.12.43.12.2 0 .37-.08.52-.26.13-.15.7-.82.91-1.13.06-.09.08-.09.09-.09.05 0 .15.04.2.05.22.08 1.5.7 1.88.9.06.03.11.05.16.08.09.05.21.1.25.14.04.12.03.54-.16 1.09z"/></svg>