<svg viewBox="0 0 20 20"><path d="M13.32 7.49c0 1.29-.77 2.45-2.02 3.02-.28.13-.58.4-.58.78v.61c0 .55-.45 1-1 1s-1-.45-1-1v-.56c0-1.16.67-2.16 1.75-2.65.52-.24.85-.7.85-1.2 0-.75-.72-1.36-1.6-1.36-.51 0-.98.2-1.29.56-.36.42-.99.46-1.41.1-.41-.36-.46-.99-.1-1.41a3.71 3.71 0 0 1 2.8-1.25c1.99 0 3.6 1.51 3.6 3.36zm-2.86 6.67a1.02 1.02 0 0 0-1.09-.22c-.13.05-.23.13-.33.22-.09.09-.16.2-.22.32-.05.13-.07.26-.07.39s.02.26.07.38c.06.12.13.23.22.33.1.09.2.16.33.21.12.05.25.08.38.08.26 0 .52-.11.71-.29.09-.1.16-.21.21-.33.05-.12.08-.25.08-.38s-.03-.26-.08-.39c-.05-.12-.13-.23-.21-.32zm8.95-10.02v11.71c0 1.96-1.6 3.56-3.56 3.56H4.14c-1.96 0-3.56-1.6-3.56-3.56V4.14C.58 2.18 2.18.58 4.14.58h11.71c1.97.01 3.56 1.6 3.56 3.56zm-2 0c0-.86-.7-1.56-1.56-1.56H4.14c-.86 0-1.56.7-1.56 1.56v11.71c0 .86.7 1.56 1.56 1.56h11.71c.86 0 1.56-.7 1.56-1.56V4.14z"/></svg>