<svg viewBox="0 0 32 32"><path d="m19.75 12.04-.41-2.74c.67-.32 1.14-1 1.14-1.79v-.14c0-.84-.53-1.55-1.27-1.84.02-.1.03-.21.03-.31V4.03c0-.92-.75-1.67-1.67-1.67h-3.16c-.92 0-1.67.75-1.67 1.67v1.18c0 .11.01.21.03.31-.74.29-1.27 1-1.27 1.84v.15c0 .79.47 1.47 1.14 1.79l-.41 2.74c-.85.28-1.47 1.07-1.47 2.01v13.47c0 1.17.95 2.13 2.13 2.13h6.19c1.17 0 2.13-.95 2.13-2.13V14.05c.01-.94-.61-1.73-1.46-2.01zm-6.26-4.05c-.26 0-.48-.22-.48-.48v-.14c0-.26.21-.48.48-.48h5.02c.26 0 .48.21.48.48v.15c0 .26-.21.48-.48.48h-5.02v-.01zm.65 1.5h3.71l.36 2.43h-4.44l.37-2.43zm.11-5.46c0-.1.08-.17.17-.17h3.16c.1 0 .17.08.17.17v1.18c0 .1-.08.17-.17.17h-3.16c-.1 0-.17-.08-.17-.17V4.03zm5.47 23.49c0 .34-.28.63-.63.63H12.9c-.34 0-.63-.28-.63-.63V14.05c0-.34.28-.63.63-.63h6.18c.34 0 .63.28.63.63v13.47zm-4.25-12.68c-.68.94-1.81 2.65-1.81 3.51 0 1.17 1.05 2.12 2.34 2.12s2.34-.95 2.34-2.12c0-.86-1.13-2.57-1.81-3.51-.23-.31-.83-.31-1.06 0zm.53 4.44c-.63 0-1.14-.41-1.14-.92 0-.25.42-1.09 1.14-2.17.72 1.08 1.14 1.92 1.14 2.17 0 .5-.51.92-1.14.92z"/></svg>