<svg viewBox="0 0 20 20"><path d="M17.002 2.716c.39.049 1.243.053 2.004.902.6.648.794 2.119.794 2.119s.2 1.726.2 3.452v1.618c0 1.588-.17 3.176-.197 3.42l-.003.032s-.196 1.47-.794 2.116c-.761.85-1.613.854-2.004.905-2.358.18-5.71.213-6.71.22h-.336c-.276-.003-1.797-.02-3.372-.06l-.498-.013c-1.16-.033-2.28-.079-2.886-.14-.446-.09-1.444-.064-2.206-.912C.394 15.728.2 14.26.2 14.26l-.003-.032A34.792 34.792 0 0 1 0 11.014V9.189c0-1.726.2-3.451.2-3.451s.196-1.47.794-2.118c.761-.85 1.613-.855 2.004-.904 2.357-.182 5.706-.21 6.705-.215h.594c.999.004 4.348.033 6.705.215Zm-9.5 3.534v7.5L13.755 10 7.502 6.25Z"/></svg>